<svg width="21" height="23" viewBox="0 0 21 23" fill="none" xmlns="http://www.w3.org/2000/svg">
<path fill-rule="evenodd" clip-rule="evenodd" d="M9.5542 9.31695C13.033 8.74501 15.7472 11.2357 16.2146 14.12C16.766 17.5209 14.2978 20.272 11.4586 20.7537C7.98187 21.3421 5.22056 18.8452 4.75317 15.9445C4.25913 12.8777 6.3214 9.84789 9.5542 9.31695ZM3.69128 15.2414C3.43504 14.569 3.91063 12.8982 4.18123 12.2956C4.58917 11.3915 5.05451 10.7663 5.61006 10.2005C6.15535 9.64494 6.82364 9.1509 7.69078 8.76141C8.12947 8.56461 10.1774 7.91272 10.6304 8.23661C10.9195 8.44366 10.7206 8.67531 10.3803 8.70811C10.0892 8.73886 9.8453 8.73066 9.53985 8.77371C9.06016 8.84136 8.58252 8.96435 8.14382 9.1468C7.26643 9.5076 6.51819 10.0283 6.01185 10.5305C5.47886 11.0574 4.98687 11.779 4.61377 12.6523C4.25708 13.4927 4.21608 14.0442 4.16278 14.9011C4.13818 15.2906 4.07463 15.3213 3.69128 15.2414ZM9.69975 7.94142C6.0672 8.33091 2.95739 11.6191 3.38994 15.7457C3.78148 19.4889 7.06144 22.5516 11.2741 22.119C14.9231 21.7439 17.9755 18.4311 17.5737 14.3045C17.2149 10.6166 13.8735 7.49452 9.69975 7.94142Z" fill="#FCB90C"/>
<path fill-rule="evenodd" clip-rule="evenodd" d="M9.39881 5.97097L9.67556 5.95867L11.2253 5.95662L11.5082 5.96482C11.3811 6.18007 10.7313 6.87706 10.4381 7.03696L9.39881 5.97097ZM14.0953 3.28141C13.8001 3.8677 13.3286 3.69756 12.4922 3.69756L7.34884 3.70166C7.0065 3.68116 6.90195 3.53766 6.76255 3.27116L14.0953 3.28141ZM6.43865 2.73817C6.04096 2.73817 5.93641 2.52497 5.75396 2.31793L15.0629 2.33022C14.862 2.49422 14.8025 2.73817 14.3741 2.73817H6.43865ZM5.45262 1.75213C5.02417 1.75213 4.84993 1.47129 4.68798 1.23144L16.1022 1.22324C15.969 1.47949 15.7886 1.75213 15.3765 1.75213H5.45262ZM5.28452 9.39648L5.68016 9.04798C5.48542 8.70974 4.12834 7.4654 3.75934 7.08616C0.559334 3.79185 0.389186 4.4007 1.76677 2.97392C2.08656 2.64182 2.38176 2.34047 2.71385 2.02068C3.0193 1.72753 3.30835 1.20684 3.90489 1.30524L5.10617 2.43272C5.28452 2.62132 5.30707 2.68692 5.47722 2.83657L10.0077 7.38545L10.9506 7.3793C11.1925 6.99596 12.6173 5.62248 13.0642 5.18994C13.6136 4.65694 14.6098 3.48846 15.1346 3.03952C15.4852 2.73817 15.6635 2.49422 15.971 2.18673C17.0124 1.14329 16.9099 0.901395 17.9144 1.87308C18.226 2.17443 18.4925 2.44092 18.7959 2.75047C19.9377 3.91485 20.1735 3.8677 19.3883 4.68769L15.2535 8.99878C15.3294 9.11973 15.5303 9.26528 15.6594 9.41083C15.7332 9.10128 16.7336 8.17469 17.0329 7.8959C17.6725 7.29731 18.5191 6.32767 19.1649 5.66348C19.9623 4.84759 21.0816 4.29 19.784 3.02722C19.2879 2.54342 18.8246 2.08218 18.3408 1.58404C17.6581 0.880895 17.6828 0.682048 16.2929 0.684098H4.53833C3.11155 0.684098 3.17715 0.833746 2.46786 1.56354C1.96561 2.07603 1.50027 2.53727 0.991878 3.04362C0.329737 3.70166 0.11244 4.1793 0.901679 4.95009C1.41622 5.45028 1.87542 5.91563 2.38176 6.42402C2.80815 6.85246 5.15537 9.10743 5.28452 9.39648Z" fill="#C24700"/>
<path fill-rule="evenodd" clip-rule="evenodd" d="M1.09376 4.12739C1.01997 3.78709 1.32951 3.71124 1.57346 3.91624C1.71081 4.03309 1.9035 4.22784 2.06955 4.41028C2.55744 4.95148 4.94976 7.18799 5.00921 7.39914C5.12401 7.80299 4.69762 7.74764 4.51722 7.60004L1.09376 4.12739ZM5.67545 9.04937C5.92555 8.93252 6.24329 8.64347 6.54874 8.46513C6.84599 8.29293 7.20473 8.11048 7.57783 7.94853C8.49211 7.55494 9.05791 7.58979 10.0029 7.38684L5.47251 2.83796C5.30236 2.68831 5.27981 2.62271 5.10146 2.43411L3.90018 1.30663C3.30363 1.20823 3.01459 1.72892 2.70914 2.02207C2.37705 2.34186 2.08185 2.64321 1.76206 2.9753C0.384475 4.40208 0.554622 3.79324 3.75463 7.08755C4.12362 7.46679 5.4807 8.71112 5.67545 9.04937Z" fill="#FE8A04"/>
<path fill-rule="evenodd" clip-rule="evenodd" d="M18.8395 4.00325C19.1408 3.67935 19.4217 4.10985 19.1818 4.33944C18.9645 4.54854 18.5812 4.27999 18.8395 4.00325ZM16.9842 3.33496C17.4065 3.03771 17.6648 3.624 17.343 3.8454C17.0027 4.0791 16.607 3.5994 16.9842 3.33496ZM18.1978 3.14636C18.083 3.26526 17.9313 3.26936 17.8206 3.16071C17.6361 2.97621 17.7858 2.88396 17.8678 2.80812C18.1466 2.55187 18.3844 2.94751 18.1978 3.14636ZM10.9512 7.37955L11.312 7.41235C11.2484 6.98391 11.6974 6.71331 11.888 6.54931C12.1976 6.28077 12.3636 6.08192 12.6321 5.81337L15.5308 2.87166C15.7481 2.62567 16.771 1.39978 17.0929 1.63348C17.261 1.83643 17.2159 1.94508 17.0396 2.12547C16.197 2.99261 12.05 7.04746 11.7876 7.4472C12.0438 7.59275 13.1651 7.8367 13.6346 8.05194C13.9216 8.18314 14.2127 8.34099 14.4607 8.49064C14.7313 8.65463 14.9691 8.86988 15.2541 8.99903L19.3889 4.68794C20.174 3.86795 19.9382 3.9151 18.7964 2.75072C18.493 2.44117 18.2265 2.17467 17.9149 1.87333C16.9104 0.901641 17.0129 1.14354 15.9716 2.18697C15.6641 2.49447 15.4857 2.73842 15.1352 3.03976C14.6104 3.48871 13.6141 4.65719 13.0647 5.19018C12.6178 5.62273 11.1931 6.99621 10.9512 7.37955Z" fill="#FE8A04"/>
<path fill-rule="evenodd" clip-rule="evenodd" d="M9.70316 7.94035C13.8769 7.49346 17.2184 10.6156 17.5771 14.3035C17.9789 18.4301 14.9265 21.7428 11.2775 22.118C7.06485 22.5505 3.78489 19.4878 3.39335 15.7446C2.96081 11.618 6.07061 8.32985 9.70316 7.94035ZM5.67907 9.04734L5.28342 9.39583C5.04153 9.74023 4.71558 9.87963 3.99399 10.9723C3.65575 11.4848 3.2847 12.3211 3.09405 13.0284C1.83947 17.7167 5.25882 22.6653 10.4473 22.6837C17.6652 22.7083 20.6439 13.8012 15.6583 9.41018C15.5292 9.26464 15.3283 9.11909 15.2524 8.99814C14.9675 8.86899 14.7297 8.65374 14.4591 8.48975C14.211 8.3401 13.9199 8.18225 13.633 8.05105C13.1635 7.83581 12.0422 7.59186 11.7859 7.44631L11.3103 7.41146L10.9495 7.37866L10.0066 7.38481C9.06152 7.58776 8.49573 7.55291 7.58144 7.9465C7.20834 8.10845 6.8496 8.2909 6.55235 8.4631C6.24691 8.64144 5.92916 8.93049 5.67907 9.04734Z" fill="#E99C05"/>
<path fill-rule="evenodd" clip-rule="evenodd" d="M9.92663 9.78141C12.9708 9.43291 15.4206 11.7576 15.724 14.4082C16.0765 17.4791 13.7826 20.0149 11.0828 20.2732C7.94226 20.5745 5.52944 18.3462 5.23425 15.5992C4.89805 12.4833 7.21042 10.093 9.92663 9.78141ZM9.55559 9.31607C6.32278 9.84701 4.26051 12.8769 4.75455 15.9436C5.22195 18.8443 7.98326 21.3412 11.46 20.7529C14.2992 20.2711 16.7674 17.5201 16.2159 14.1192C15.7486 11.2348 13.0344 8.74412 9.55559 9.31607Z" fill="#E99C05"/>
<path fill-rule="evenodd" clip-rule="evenodd" d="M3.70038 15.2415C4.08372 15.3214 4.14727 15.2907 4.17187 14.9012C4.22517 14.0443 4.26617 13.4929 4.62286 12.6524C4.99596 11.7791 5.48795 11.0575 6.02094 10.5306C6.52729 10.0284 7.27553 9.50771 8.15291 9.14692C8.59161 8.96447 9.06925 8.84147 9.54895 8.77382C9.85439 8.73077 10.0983 8.73897 10.3894 8.70822C10.7297 8.67542 10.9286 8.44378 10.6395 8.23673C10.1865 7.91284 8.13856 8.56473 7.69987 8.76152C6.83273 9.15102 6.16444 9.64506 5.61915 10.2006C5.06361 10.7664 4.59826 11.3916 4.19032 12.2957C3.91972 12.8984 3.44413 14.5691 3.70038 15.2415Z" fill="#FFD05A"/>
<path fill-rule="evenodd" clip-rule="evenodd" d="M11.3088 7.41233L11.7844 7.44718C12.0468 7.04744 16.1939 2.9926 17.0365 2.12546C17.2128 1.94506 17.2579 1.83641 17.0898 1.63346C16.7679 1.39977 15.745 2.62565 15.5277 2.87165L12.629 5.81336C12.3605 6.0819 12.1944 6.28075 11.8849 6.5493C11.6942 6.71329 11.2453 6.98389 11.3088 7.41233Z" fill="#FFAF50"/>
<path fill-rule="evenodd" clip-rule="evenodd" d="M2.07868 4.40859C1.91263 4.22614 1.71993 4.0314 1.58258 3.91455C1.33864 3.70955 1.02909 3.7854 1.10289 4.1257L4.52634 7.59835C4.70674 7.74594 5.13313 7.80129 5.01834 7.39745C4.95889 7.1863 2.56657 4.94978 2.07868 4.40859Z" fill="#FFAF50"/>
<path fill-rule="evenodd" clip-rule="evenodd" d="M10.4436 7.03688C10.7368 6.87698 11.3866 6.17999 11.5137 5.96474L11.2308 5.95654L9.68104 5.95859L9.4043 5.97089L10.4436 7.03688Z" fill="#0F1119"/>
<path fill-rule="evenodd" clip-rule="evenodd" d="M16.9815 3.33504C16.6043 3.59949 16.9999 4.07918 17.3402 3.84548C17.6621 3.62409 17.4038 3.0378 16.9815 3.33504Z" fill="#E77D02"/>
<ellipse cx="10.4449" cy="15.0327" rx="5.30622" ry="5.36371" fill="#FEDB25"/>
<path fill-rule="evenodd" clip-rule="evenodd" d="M7.5332 14.0292C7.89195 14.5376 8.42289 14.8902 8.78779 15.3289C9.12398 15.7286 8.68324 16.3436 8.62174 17.3173C9.00713 17.2107 10.1264 16.5158 10.3806 16.4953C10.6635 16.4748 11.8094 17.1943 12.1948 17.3337L11.8607 15.5093C12.0554 15.2879 12.3486 14.9783 12.5474 14.7938C12.8098 14.5499 13.0476 14.3018 13.269 14.1214C13.1645 14.0189 13.3203 14.0968 13.0743 13.9943C12.9923 13.9615 12.8816 13.9451 12.7893 13.9267L11.7336 13.7217C11.4466 13.6499 11.4958 13.6643 11.3626 13.4552C11.0428 12.955 10.7189 12.3667 10.4319 11.8583C10.1531 12.1535 9.72462 12.9775 9.47453 13.408C9.25518 13.7873 9.10348 13.7114 8.60944 13.8078C8.25069 13.8775 7.89605 13.9677 7.5332 14.0292Z" fill="black"/>
<path fill-rule="evenodd" clip-rule="evenodd" d="M7.52939 14.0302C7.89223 13.9687 8.24688 13.8785 8.60562 13.8088C9.09967 13.7124 9.25137 13.7883 9.47071 13.409C9.72081 12.9785 10.1493 12.1545 10.428 11.8593C10.715 12.3677 11.0389 12.956 11.3587 13.4562C11.492 13.6653 11.4428 13.6509 11.7298 13.7227L12.7855 13.9277C12.8778 13.9461 12.9885 13.9625 13.0705 13.9953C13.3165 14.0978 13.1607 14.0199 13.2652 14.1224C13.0438 14.3028 12.806 14.5509 12.5436 14.7948C12.3448 14.9793 12.0516 15.2889 11.8569 15.5103L12.191 17.3347C11.8056 17.1953 10.6597 16.4758 10.3768 16.4963C10.1226 16.5168 9.00332 17.2117 8.61792 17.3183C8.67942 16.3446 9.12017 15.7296 8.78397 15.3299C8.41908 14.8912 7.88813 14.5386 7.52939 14.0302ZM10.2415 11.3406C9.86841 11.5026 9.65521 12.0438 9.44406 12.4005C9.10992 12.9662 9.22062 13.1548 8.44983 13.3086C6.81395 13.6325 6.46751 13.7924 7.62164 14.9383C8.05828 15.3729 8.39038 15.5902 8.33708 15.9285C8.24278 16.5352 7.46174 18.5811 9.25137 17.6258C10.5818 16.9145 10.2005 16.8878 11.7421 17.7201C12.2423 17.9887 12.8019 17.9108 12.722 17.224C12.681 16.8571 12.3817 15.9715 12.4883 15.6702C12.6154 15.3094 14.5874 14.0671 13.5051 13.5648C13.1176 13.3844 12.3304 13.3701 11.945 13.2143C11.4141 12.997 11.002 11.0106 10.2415 11.3406Z" fill="#E99C05"/>
</svg>
