<svg width="20" height="20" viewBox="0 0 20 20" fill="none" xmlns="http://www.w3.org/2000/svg">
<ellipse cx="10.4376" cy="9.9507" rx="6.9728" ry="6.71096" fill="#BACAD1"/>
<path d="M7.25237 10.0325L6.21401 9.78836L6.55496 6.90576H9.85213V7.92087H7.62044L7.49258 9.04059C7.55458 9.00443 7.65919 8.96181 7.80642 8.91273C7.95623 8.86107 8.12154 8.83524 8.30235 8.83524C8.58131 8.83524 8.82798 8.87786 9.04237 8.9631C9.25934 9.04576 9.44273 9.16845 9.59254 9.33118C9.74236 9.49132 9.85472 9.68892 9.92962 9.92397C10.0071 10.159 10.0459 10.4276 10.0459 10.7299C10.0459 10.9727 10.0058 11.2077 9.92575 11.435C9.84826 11.6597 9.72815 11.8625 9.56542 12.0433C9.40528 12.2215 9.20251 12.3636 8.95713 12.4695C8.71175 12.5728 8.42116 12.6245 8.08538 12.6245C7.83483 12.6245 7.59074 12.5857 7.3531 12.5082C7.11547 12.4307 6.90108 12.3197 6.70994 12.175C6.52139 12.0278 6.37157 11.8509 6.26051 11.6442C6.15202 11.435 6.09907 11.2012 6.10165 10.943H7.4151C7.42284 11.0798 7.45513 11.1987 7.51196 11.2994C7.56878 11.4001 7.64498 11.4789 7.74055 11.5357C7.8387 11.59 7.95106 11.6171 8.07763 11.6171C8.20678 11.6171 8.31397 11.5913 8.39921 11.5396C8.48445 11.488 8.5516 11.4169 8.60068 11.3265C8.64976 11.2361 8.68463 11.1328 8.70529 11.0166C8.72596 10.8977 8.73629 10.7725 8.73629 10.6407C8.73629 10.5013 8.72079 10.376 8.68979 10.2649C8.66138 10.1539 8.61489 10.0596 8.55031 9.98208C8.48574 9.90201 8.40179 9.84131 8.29847 9.79999C8.19774 9.75866 8.07634 9.73799 7.93427 9.73799C7.74572 9.73799 7.5972 9.77028 7.48871 9.83486C7.38023 9.89943 7.30144 9.9653 7.25237 10.0325Z" fill="#0E0E0E"/>
<path d="M11.8669 8.35481L12.4558 9.5094L13.0641 8.35481H14.4201L13.3198 10.3967L14.4782 12.547H13.1106L12.4558 11.3072L11.8049 12.547H10.4372L11.5956 10.3967L10.4992 8.35481H11.8669Z" fill="#0E0E0E"/>
<path fill-rule="evenodd" clip-rule="evenodd" d="M7.76035 10.4123C7.92259 10.5193 8.03324 10.699 8.04499 10.9066C8.04728 10.9469 8.05365 10.9693 8.05765 10.9797C8.06434 10.9602 8.07085 10.936 8.07622 10.9061C8.08996 10.8266 8.09762 10.7384 8.09762 10.6403C8.09762 10.5469 8.08714 10.4804 8.07449 10.4351C8.07325 10.4307 8.07206 10.4262 8.07093 10.4218C8.06665 10.4051 8.06253 10.3955 8.06041 10.3912C8.05999 10.3904 8.05962 10.3897 8.05931 10.3891C8.05916 10.389 8.059 10.389 8.05884 10.3889L8.05365 10.3868C8.0488 10.3848 8.01378 10.3723 7.93039 10.3723C7.87111 10.3723 7.83331 10.3775 7.81243 10.3821C7.80738 10.3832 7.80371 10.3841 7.80129 10.3848C7.78252 10.3963 7.76923 10.4056 7.76035 10.4123ZM8.70141 11.0161C8.68075 11.1323 8.64588 11.2357 8.5968 11.3261C8.54773 11.4165 8.48057 11.4875 8.39533 11.5392C8.31009 11.5908 8.2029 11.6166 8.07375 11.6166C7.94718 11.6166 7.83482 11.5895 7.73667 11.5353C7.6411 11.4785 7.5649 11.3997 7.50808 11.2989C7.45125 11.1982 7.41896 11.0794 7.41122 10.9425H6.09777C6.09765 10.9545 6.09765 10.9665 6.09777 10.9784C6.09997 11.1957 6.14217 11.3953 6.22439 11.5773C6.23453 11.5997 6.24527 11.6219 6.25663 11.6438C6.36769 11.8504 6.51751 12.0273 6.70606 12.1746C6.8972 12.3192 7.11159 12.4303 7.34922 12.5078C7.58686 12.5853 7.83095 12.624 8.0815 12.624C8.41728 12.624 8.70787 12.5723 8.95325 12.469C9.19864 12.3631 9.4014 12.2211 9.56154 12.0428C9.72427 11.862 9.84438 11.6593 9.92187 11.4345C10.0019 11.2072 10.042 10.9722 10.042 10.7294C10.042 10.4272 10.0032 10.1586 9.92574 9.92351C9.85084 9.68845 9.73848 9.49086 9.58866 9.33071C9.43885 9.16799 9.25546 9.04529 9.03849 8.96264C8.8241 8.8774 8.57743 8.83478 8.29847 8.83478C8.24789 8.83478 8.19853 8.8368 8.15038 8.84084C8.02639 8.85125 7.91044 8.87506 7.80254 8.91227C7.65531 8.96135 7.5507 9.00397 7.4887 9.04013L7.61656 7.92041H9.84825V6.9053H6.55108L6.21013 9.7879L7.24849 10.032C7.29756 9.96483 7.37635 9.89897 7.48483 9.83439C7.59332 9.76982 7.74184 9.73753 7.93039 9.73753C8.07246 9.73753 8.19386 9.7582 8.29459 9.79952C8.39791 9.84085 8.48186 9.90155 8.54643 9.98162C8.61101 10.0591 8.6575 10.1534 8.68591 10.2645C8.71691 10.3755 8.73241 10.5008 8.73241 10.6403C8.73241 10.772 8.72208 10.8973 8.70141 11.0161ZM9.63944 8.5552C9.7914 8.6503 9.93021 8.76481 10.054 8.89892C10.0649 8.91059 10.0756 8.92236 10.0862 8.93425L9.93603 8.65467C9.91849 8.622 9.90401 8.58821 9.89259 8.55368C9.87794 8.55469 9.86316 8.5552 9.84825 8.5552H9.63944ZM10.483 7.71967V6.9053C10.483 6.55471 10.1988 6.27051 9.84825 6.27051H6.55108C6.22934 6.27051 5.95848 6.51122 5.92069 6.83074L5.57973 9.71334C5.54907 9.97255 5.67966 10.217 5.89689 10.3401C5.64684 10.4235 5.46579 10.6582 5.46301 10.9361C5.45949 11.2881 5.53232 11.6259 5.69309 11.936L5.69749 11.9443C5.85108 12.2301 6.05884 12.4746 6.31539 12.6749L6.323 12.6808C6.57277 12.8698 6.85062 13.0129 7.15243 13.1113C7.45376 13.2095 7.76428 13.2588 8.0815 13.2588C8.48059 13.2588 8.85874 13.1976 9.19959 13.0541L9.20479 13.0519C9.42792 12.9556 9.63222 12.8325 9.81284 12.6807C9.82721 12.7472 9.85238 12.8118 9.88828 12.872C10.0028 13.0638 10.2098 13.1813 10.4333 13.1813H11.801C12.0369 13.1813 12.2534 13.0505 12.363 12.8416L12.4536 12.6691L12.5454 12.843C12.6553 13.0511 12.8713 13.1813 13.1067 13.1813H14.4744C14.6978 13.1813 14.9048 13.0638 15.0194 12.872C15.1339 12.6801 15.1392 12.4422 15.0332 12.2454L14.037 10.3962L14.9751 8.65549C15.0811 8.45877 15.0758 8.2208 14.9613 8.02893C14.8467 7.83706 14.6397 7.71956 14.4162 7.71956H13.0602C12.8246 7.71956 12.6084 7.85003 12.4986 8.05846L12.461 8.12975L12.4285 8.06592C12.32 7.85336 12.1016 7.71956 11.863 7.71956H10.4953C10.4912 7.71956 10.4871 7.7196 10.483 7.71967ZM12.4519 9.50894L11.863 8.35435H10.4953L11.5918 10.3962L10.4333 12.5465H11.801L12.4519 11.3067L13.1067 12.5465H14.4744L13.3159 10.3962L14.4162 8.35435H13.0602L12.4519 9.50894ZM10.871 10.3957L10.5535 9.80452C10.6387 10.0937 10.6768 10.4042 10.6768 10.7294C10.6768 10.7384 10.6767 10.7474 10.6766 10.7564L10.871 10.3957Z" fill="#81A5B0"/>
<path fill-rule="evenodd" clip-rule="evenodd" d="M9.89127 18.3017C10.1776 17.4286 13.2336 18.452 15.8531 15.5033C18.4655 12.5653 17.8034 10.7224 18.1076 9.98518C18.5191 8.98319 19.2742 10.6472 17.9358 13.5423C15.7279 18.3125 10.4603 19.0174 9.89127 18.3017ZM17.3454 10.9299C16.8623 14.6337 13.5163 17.7793 9.2364 17.1852C5.55765 16.6771 2.43001 13.3096 3.07056 8.97245C3.59661 5.37244 6.98549 2.33067 11.2153 2.91755C14.7545 3.40781 17.8857 6.77522 17.3454 10.9299ZM1.82165 10.3108C1.37076 9.55218 2.07931 7.33706 2.36559 6.67503C2.82007 5.61935 3.41768 4.80345 4.1656 4.05911C5.80815 2.43803 9.40101 0.852733 10.496 1.74021C10.3601 2.83883 7.7012 1.39667 4.66302 4.43844C3.5644 5.53705 2.70913 7.04719 2.42643 8.70406C2.18666 10.1069 2.60893 10.3251 1.82165 10.3108ZM9.05747 1.28574C4.58429 1.88335 0.701569 5.91637 1.41012 11.2055C1.997 15.5856 6.11233 19.5614 11.2976 18.8313C15.8281 18.1944 19.6321 14.1828 18.9629 8.91877C18.3867 4.39907 14.2428 0.591499 9.05747 1.28574Z" fill="#BACAD1"/>
<path fill-rule="evenodd" clip-rule="evenodd" d="M9.05852 1.28548C14.2438 0.591243 18.3878 4.39881 18.9639 8.91851C19.6331 14.1826 15.8291 18.1941 11.2987 18.8311C6.11338 19.5611 1.99806 15.5853 1.41117 11.2052C0.702623 5.91612 4.58534 1.8831 9.05852 1.28548ZM8.58615 0.695021C3.909 1.52524 -0.134757 5.91254 0.83145 11.674C1.61515 16.3404 6.08117 20.3376 11.7746 19.418C16.4267 18.6665 20.5635 14.0967 19.5544 8.41394C18.7385 3.80477 14.3047 -0.321285 8.58615 0.695021Z" fill="#81A5B0"/>
<path fill-rule="evenodd" clip-rule="evenodd" d="M8.95321 3.62829C12.9003 2.84459 16.0351 5.64301 16.6184 8.81718C17.3592 12.8108 14.6324 15.8311 11.426 16.4824C7.53969 17.2661 4.37625 14.4677 3.75359 11.3401C2.93768 7.23189 5.80409 4.25454 8.95321 3.62829ZM17.3449 10.9285C17.8853 6.77383 14.754 3.40642 11.2148 2.91616C6.98501 2.32928 3.59613 5.37104 3.07009 8.97106C2.42953 13.3083 5.55717 16.6757 9.23591 17.1838C13.5159 17.7779 16.8618 14.6323 17.3449 10.9285Z" fill="#81A5B0"/>
<path fill-rule="evenodd" clip-rule="evenodd" d="M1.81238 10.3105C2.59966 10.3248 2.17739 10.1065 2.41715 8.70372C2.69985 7.04685 3.55513 5.53671 4.65374 4.4381C7.69192 1.39634 10.3508 2.83849 10.4868 1.73988C9.39173 0.852397 5.79887 2.43769 4.15632 4.05877C3.40841 4.80311 2.81079 5.61902 2.35631 6.67469C2.07003 7.33672 1.36148 9.55183 1.81238 10.3105Z" fill="#D1E1E6"/>
<path fill-rule="evenodd" clip-rule="evenodd" d="M9.88867 18.3012C10.4577 19.0169 15.7253 18.3119 17.9332 13.5417C19.2716 10.6467 18.5165 8.98267 18.105 9.98466C17.8008 10.7218 18.4629 12.5648 15.8505 15.5028C13.231 18.4515 10.175 17.428 9.88867 18.3012Z" fill="#A2B9C1"/>
</svg>
