<svg width="93" height="50" viewBox="0 0 93 50" fill="none" xmlns="http://www.w3.org/2000/svg">
<path d="M92.7071 25.7071C93.0976 25.3166 93.0976 24.6834 92.7071 24.2929L86.3431 17.9289C85.9526 17.5384 85.3195 17.5384 84.9289 17.9289C84.5384 18.3195 84.5384 18.9526 84.9289 19.3431L90.5858 25L84.9289 30.6569C84.5384 31.0474 84.5384 31.6805 84.9289 32.0711C85.3195 32.4616 85.9526 32.4616 86.3431 32.0711L92.7071 25.7071ZM71 26H92V24H71V26Z" fill="#808080"/>
<path d="M0 25H21" stroke="#808080" stroke-width="2"/>
<circle cx="46" cy="25" r="24" stroke="#808080" stroke-width="2"/>
<path fill-rule="evenodd" clip-rule="evenodd" d="M35.028 21.875V23.9583C35.028 24.5833 35.4336 25 36.042 25C36.6504 25 37.056 24.5833 37.056 23.9583V21.875C37.056 20.1042 38.3743 18.75 40.0981 18.75H51.8606L49.5284 21.1458C49.1228 21.5625 49.1228 22.1875 49.5284 22.6042C49.7312 22.8125 49.934 22.9167 50.2382 22.9167C50.5424 22.9167 50.7452 22.8125 50.948 22.6042L55.004 18.4375C55.0548 18.3854 55.0801 18.3333 55.1055 18.2812C55.1308 18.2292 55.1562 18.1771 55.2069 18.125C55.3083 17.8125 55.3083 17.5 55.2069 17.2917C55.2069 17.1875 55.1055 17.0833 55.004 16.9792L50.948 12.8125C50.5424 12.3958 49.934 12.3958 49.5284 12.8125C49.1228 13.2292 49.1228 13.8542 49.5284 14.2708L51.8606 16.6667H40.0981C37.2588 16.6667 35.028 18.9583 35.028 21.875ZM53.2803 26.0417C53.2803 25.4167 53.6859 25 54.2943 25C54.9027 25 55.3083 25.4167 55.3083 26.0417V28.125C55.3083 31.0417 53.0775 33.3333 50.2382 33.3333H38.4757L40.8079 35.7292C41.2135 36.1458 41.2135 36.7708 40.8079 37.1875C40.6051 37.3958 40.4023 37.5 40.0981 37.5C39.7939 37.5 39.5911 37.3958 39.3883 37.1875L35.3322 33.0208C35.2815 32.9688 35.2562 32.9167 35.2308 32.8646C35.2055 32.8125 35.1801 32.7604 35.1294 32.7083C35.028 32.3958 35.028 32.0833 35.1294 31.875C35.1294 31.7708 35.2308 31.6667 35.3322 31.5625L39.3883 27.3958C39.7939 26.9792 40.4023 26.9792 40.8079 27.3958C41.2135 27.8125 41.2135 28.4375 40.8079 28.8542L38.4757 31.25H50.2382C51.962 31.25 53.2803 29.8958 53.2803 28.125V26.0417Z" fill="#808080"/>
<mask id="mask0_107_4062" style="mask-type:luminance" maskUnits="userSpaceOnUse" x="35" y="12" width="21" height="26">
<path fill-rule="evenodd" clip-rule="evenodd" d="M35.028 21.875V23.9583C35.028 24.5833 35.4336 25 36.042 25C36.6504 25 37.056 24.5833 37.056 23.9583V21.875C37.056 20.1042 38.3743 18.75 40.0981 18.75H51.8606L49.5284 21.1458C49.1228 21.5625 49.1228 22.1875 49.5284 22.6042C49.7312 22.8125 49.934 22.9167 50.2382 22.9167C50.5424 22.9167 50.7452 22.8125 50.948 22.6042L55.004 18.4375C55.0548 18.3854 55.0801 18.3333 55.1055 18.2812C55.1308 18.2292 55.1562 18.1771 55.2069 18.125C55.3083 17.8125 55.3083 17.5 55.2069 17.2917C55.2069 17.1875 55.1055 17.0833 55.004 16.9792L50.948 12.8125C50.5424 12.3958 49.934 12.3958 49.5284 12.8125C49.1228 13.2292 49.1228 13.8542 49.5284 14.2708L51.8606 16.6667H40.0981C37.2588 16.6667 35.028 18.9583 35.028 21.875ZM53.2803 26.0417C53.2803 25.4167 53.6859 25 54.2943 25C54.9027 25 55.3083 25.4167 55.3083 26.0417V28.125C55.3083 31.0417 53.0775 33.3333 50.2382 33.3333H38.4757L40.8079 35.7292C41.2135 36.1458 41.2135 36.7708 40.8079 37.1875C40.6051 37.3958 40.4023 37.5 40.0981 37.5C39.7939 37.5 39.5911 37.3958 39.3883 37.1875L35.3322 33.0208C35.2815 32.9688 35.2562 32.9167 35.2308 32.8646C35.2055 32.8125 35.1801 32.7604 35.1294 32.7083C35.028 32.3958 35.028 32.0833 35.1294 31.875C35.1294 31.7708 35.2308 31.6667 35.3322 31.5625L39.3883 27.3958C39.7939 26.9792 40.4023 26.9792 40.8079 27.3958C41.2135 27.8125 41.2135 28.4375 40.8079 28.8542L38.4757 31.25H50.2382C51.962 31.25 53.2803 29.8958 53.2803 28.125V26.0417Z" fill="white"/>
</mask>
<g mask="url(#mask0_107_4062)">
<rect x="33" y="12.5" width="24.3363" height="25" fill="#808080"/>
</g>
</svg>
