<svg width="17" height="18" viewBox="0 0 17 18" fill="none" xmlns="http://www.w3.org/2000/svg">
<rect y="0.569946" width="17" height="17" rx="8.5" fill="#919191"/>
<path fill-rule="evenodd" clip-rule="evenodd" d="M9.40625 4.24852C9.40625 3.8027 9.04484 3.44128 8.59901 3.44128H8.40099C7.95516 3.44128 7.59375 3.8027 7.59375 4.24852C7.59375 4.69434 7.95516 5.05576 8.40099 5.05576H8.59901C9.04484 5.05576 9.40625 4.69434 9.40625 4.24852ZM9.40625 7.56391C9.40625 7.0634 9.00051 6.65766 8.5 6.65766C7.99949 6.65766 7.59375 7.06341 7.59375 7.56391V13.7924C7.59375 14.2929 7.99949 14.6986 8.5 14.6986C9.00051 14.6986 9.40625 14.2929 9.40625 13.7924V7.56391Z" fill="white"/>
</svg>
