<svg width="249" height="69" viewBox="0 0 249 69" fill="none" xmlns="http://www.w3.org/2000/svg">
<g filter="url(#filter0_di_107_4854)">
<path d="M5.70895 42.7296L8.95058 25.5058H11.0931L11.7331 28.177L8.25495 45.7626H5.93155L5.70895 42.7296ZM4.59594 25.5058L7.21151 42.7714L6.7663 45.7626H4.20639L0.575195 25.5058H4.59594ZM14.0843 42.7018L16.686 25.5058H20.6928L17.0895 45.7626H14.5156L14.0843 42.7018ZM12.3313 25.5058L15.6008 42.827L15.3365 45.7626H13.0131L9.54883 28.1492L10.2027 25.5058H12.3313Z" fill="url(#paint0_radial_107_4854)"/>
<path d="M27.1761 25.5058V45.7626H23.1275V25.5058H27.1761Z" fill="url(#paint1_radial_107_4854)"/>
<path d="M44.8173 25.5058V45.7626H40.88L34.522 33.0882V45.7626H30.6542V25.5058H34.5359L40.9496 38.3193V25.5058H44.8173Z" fill="url(#paint2_radial_107_4854)"/>
<path d="M62.9 34.0621V37.4428C62.9 38.8712 62.7238 40.1233 62.3713 41.1992C62.0281 42.2659 61.5366 43.1609 60.8966 43.8844C60.2659 44.5986 59.5007 45.1365 58.601 45.4982C57.7106 45.86 56.7228 46.0408 55.6376 46.0408C54.5524 46.0408 53.56 45.86 52.6603 45.4982C51.7699 45.1365 51.0001 44.5986 50.3508 43.8844C49.7109 43.1609 49.2146 42.2659 48.8622 41.1992C48.5097 40.1233 48.3335 38.8712 48.3335 37.4428V34.0621C48.3335 32.5966 48.5051 31.3167 48.8483 30.2222C49.1914 29.1185 49.6877 28.2002 50.3369 27.4675C50.9862 26.7255 51.756 26.169 52.6464 25.798C53.5368 25.4177 54.5246 25.2276 55.6098 25.2276C56.695 25.2276 57.6828 25.4177 58.5732 25.798C59.4636 26.169 60.2334 26.7255 60.8827 27.4675C61.5319 28.2002 62.0281 29.1185 62.3713 30.2222C62.7238 31.3167 62.9 32.5966 62.9 34.0621ZM58.8514 37.4428V34.0342C58.8514 33.0696 58.7819 32.2488 58.6427 31.5717C58.5036 30.8854 58.2949 30.3242 58.0167 29.8883C57.7384 29.4524 57.3999 29.1324 57.0011 28.9283C56.6022 28.7243 56.1385 28.6222 55.6098 28.6222C55.0811 28.6222 54.6127 28.7243 54.2046 28.9283C53.8058 29.1324 53.4673 29.4524 53.189 29.8883C52.92 30.3242 52.716 30.8854 52.5768 31.5717C52.447 32.2488 52.3821 33.0696 52.3821 34.0342V37.4428C52.3821 38.3703 52.4516 39.1634 52.5908 39.8219C52.7299 40.4804 52.9386 41.0184 53.2168 41.4358C53.4951 41.8531 53.8336 42.1638 54.2324 42.3679C54.6406 42.5627 55.1089 42.6601 55.6376 42.6601C56.157 42.6601 56.6161 42.5627 57.015 42.3679C57.4231 42.1638 57.7616 41.8531 58.0306 41.4358C58.2996 41.0184 58.5036 40.4804 58.6427 39.8219C58.7819 39.1634 58.8514 38.3703 58.8514 37.4428Z" fill="url(#paint3_radial_107_4854)"/>
<path d="M72.764 38.6254H68.6181V35.2446H72.7501C73.3437 35.2446 73.8214 35.1148 74.1831 34.8551C74.5448 34.5954 74.8092 34.2383 74.9761 33.7838C75.1431 33.3201 75.2266 32.8007 75.2266 32.2256C75.2266 31.6413 75.1431 31.094 74.9761 30.5839C74.8092 30.0738 74.5448 29.6657 74.1831 29.3596C73.8214 29.0443 73.3484 28.8866 72.764 28.8866H69.9259V45.7626H65.8634V25.5058H72.764C74.1275 25.5058 75.3008 25.7933 76.2839 26.3684C77.2671 26.9435 78.0184 27.7365 78.5378 28.7475C79.0665 29.7492 79.3308 30.8993 79.3308 32.1978C79.3308 33.4963 79.0665 34.6279 78.5378 35.5925C78.0091 36.5571 77.2532 37.3037 76.27 37.8324C75.2961 38.3611 74.1275 38.6254 72.764 38.6254Z" fill="url(#paint4_radial_107_4854)"/>
<path d="M90.127 25.5058V45.7626H86.0784V25.5058H90.127ZM95.1633 25.5058V28.8866H81.1394V25.5058H95.1633Z" fill="url(#paint5_radial_107_4854)"/>
<path d="M101.758 25.5058V45.7626H97.7093V25.5058H101.758Z" fill="url(#paint6_radial_107_4854)"/>
<path d="M119.469 34.0621V37.4428C119.469 38.8712 119.292 40.1233 118.94 41.1992C118.597 42.2659 118.105 43.1609 117.465 43.8844C116.835 44.5986 116.069 45.1365 115.17 45.4982C114.279 45.86 113.291 46.0408 112.206 46.0408C111.121 46.0408 110.129 45.86 109.229 45.4982C108.339 45.1365 107.569 44.5986 106.919 43.8844C106.28 43.1609 105.783 42.2659 105.431 41.1992C105.078 40.1233 104.902 38.8712 104.902 37.4428V34.0621C104.902 32.5966 105.074 31.3167 105.417 30.2222C105.76 29.1185 106.256 28.2002 106.906 27.4675C107.555 26.7255 108.325 26.169 109.215 25.798C110.105 25.4177 111.093 25.2276 112.178 25.2276C113.264 25.2276 114.251 25.4177 115.142 25.798C116.032 26.169 116.802 26.7255 117.451 27.4675C118.101 28.2002 118.597 29.1185 118.94 30.2222C119.292 31.3167 119.469 32.5966 119.469 34.0621ZM115.42 37.4428V34.0342C115.42 33.0696 115.351 32.2488 115.211 31.5717C115.072 30.8854 114.864 30.3242 114.585 29.8883C114.307 29.4524 113.969 29.1324 113.57 28.9283C113.171 28.7243 112.707 28.6222 112.178 28.6222C111.65 28.6222 111.181 28.7243 110.773 28.9283C110.374 29.1324 110.036 29.4524 109.758 29.8883C109.489 30.3242 109.285 30.8854 109.146 31.5717C109.016 32.2488 108.951 33.0696 108.951 34.0342V37.4428C108.951 38.3703 109.02 39.1634 109.159 39.8219C109.299 40.4804 109.507 41.0184 109.785 41.4358C110.064 41.8531 110.402 42.1638 110.801 42.3679C111.209 42.5627 111.678 42.6601 112.206 42.6601C112.726 42.6601 113.185 42.5627 113.584 42.3679C113.992 42.1638 114.33 41.8531 114.599 41.4358C114.868 41.0184 115.072 40.4804 115.211 39.8219C115.351 39.1634 115.42 38.3703 115.42 37.4428Z" fill="url(#paint7_radial_107_4854)"/>
<path d="M136.595 25.5058V45.7626H132.658L126.3 33.0882V45.7626H122.432V25.5058H126.314L132.727 38.3193V25.5058H136.595Z" fill="url(#paint8_radial_107_4854)"/>
<path d="M155.205 35.1194V43.467C154.917 43.7731 154.495 44.1302 153.939 44.5383C153.391 44.9371 152.673 45.2895 151.782 45.5956C150.901 45.8924 149.825 46.0408 148.555 46.0408C147.432 46.0408 146.412 45.8646 145.494 45.5121C144.585 45.1597 143.801 44.6264 143.143 43.9122C142.493 43.1887 141.997 42.2891 141.654 41.2132C141.311 40.128 141.139 38.8434 141.139 37.3594V33.909C141.139 32.4436 141.301 31.1682 141.626 30.0831C141.96 28.9886 142.442 28.0797 143.073 27.3562C143.704 26.6327 144.455 26.0948 145.327 25.7423C146.208 25.3899 147.2 25.2137 148.304 25.2137C149.825 25.2137 151.073 25.4687 152.047 25.9788C153.03 26.489 153.772 27.2449 154.273 28.2466C154.783 29.2483 155.089 30.4773 155.191 31.9334H151.254C151.189 31.0801 151.045 30.4123 150.822 29.93C150.609 29.4477 150.308 29.1045 149.918 28.9005C149.528 28.6872 149.023 28.5805 148.402 28.5805C147.864 28.5805 147.395 28.6779 146.996 28.8727C146.597 29.0582 146.264 29.3642 145.995 29.7909C145.726 30.2176 145.526 30.7648 145.396 31.4326C145.267 32.1004 145.202 32.9166 145.202 33.8812V37.3594C145.202 38.3147 145.276 39.1309 145.424 39.808C145.573 40.4851 145.791 41.0369 146.078 41.4636C146.375 41.8902 146.746 42.2009 147.191 42.3957C147.646 42.5812 148.179 42.674 148.791 42.674C149.283 42.674 149.677 42.623 149.974 42.5209C150.27 42.4189 150.507 42.3122 150.683 42.2009C150.869 42.0804 151.022 41.9876 151.142 41.9227V38.1941H148.235V35.1194H155.205Z" fill="url(#paint9_radial_107_4854)"/>
<path d="M208.407 42.3957V45.7626H199.6V42.3957H208.407ZM200.866 25.5058V45.7626H196.79V25.5058H200.866ZM207.224 33.7143V36.9837H199.6V33.7143H207.224ZM208.379 25.5058V28.8866H199.6V25.5058H208.379Z" fill="url(#paint10_radial_107_4854)"/>
<path d="M230.589 25.5093V45.7657H226.54V25.5093H230.589Z" fill="url(#paint11_radial_107_4854)"/>
<path d="M248.299 34.0654V37.4461C248.299 38.8745 248.123 40.1266 247.77 41.2025C247.427 42.2691 246.936 43.1641 246.296 43.8875C245.665 44.6017 244.9 45.1397 244 45.5014C243.11 45.8631 242.122 46.044 241.037 46.044C239.952 46.044 238.959 45.8631 238.059 45.5014C237.169 45.1397 236.399 44.6017 235.75 43.8875C235.11 43.1641 234.614 42.2691 234.261 41.2025C233.909 40.1266 233.733 38.8745 233.733 37.4461V34.0654C233.733 32.6 233.904 31.3201 234.247 30.2256C234.591 29.1219 235.087 28.2037 235.736 27.471C236.385 26.729 237.155 26.1725 238.046 25.8015C238.936 25.4212 239.924 25.2311 241.009 25.2311C242.094 25.2311 243.082 25.4212 243.972 25.8015C244.863 26.1725 245.632 26.729 246.282 27.471C246.931 28.2037 247.427 29.1219 247.77 30.2256C248.123 31.3201 248.299 32.6 248.299 34.0654ZM244.25 37.4461V34.0376C244.25 33.073 244.181 32.2522 244.042 31.5751C243.903 30.8888 243.694 30.3276 243.416 29.8917C243.137 29.4558 242.799 29.1358 242.4 28.9318C242.001 28.7277 241.538 28.6257 241.009 28.6257C240.48 28.6257 240.012 28.7277 239.604 28.9318C239.205 29.1358 238.866 29.4558 238.588 29.8917C238.319 30.3276 238.115 30.8888 237.976 31.5751C237.846 32.2522 237.781 33.073 237.781 34.0376V37.4461C237.781 38.3736 237.851 39.1666 237.99 39.8251C238.129 40.4837 238.338 41.0216 238.616 41.439C238.894 41.8563 239.233 42.167 239.632 42.3711C240.04 42.5659 240.508 42.6633 241.037 42.6633C241.556 42.6633 242.015 42.5659 242.414 42.3711C242.822 42.167 243.161 41.8563 243.43 41.439C243.699 41.0216 243.903 40.4837 244.042 39.8251C244.181 39.1666 244.25 38.3736 244.25 37.4461Z" fill="url(#paint12_radial_107_4854)"/>
<rect x="24.6279" y="21.3208" width="1.1551" height="4.47602" fill="url(#paint13_radial_107_4854)"/>
<rect x="24.6279" y="45.1858" width="1.1551" height="4.47602" fill="url(#paint14_radial_107_4854)"/>
<rect x="99.251" y="21.3208" width="1.1551" height="4.47602" fill="url(#paint15_radial_107_4854)"/>
<rect x="99.251" y="45.1868" width="1.1551" height="4.47602" fill="url(#paint16_radial_107_4854)"/>
</g>
<rect x="174.101" y="25.2139" width="3.85034" height="20.8268" fill="white"/>
<rect x="174.101" y="25.2139" width="3.85034" height="20.8268" fill="white"/>
<rect x="189.956" y="25.2139" width="3.85034" height="20.8268" fill="white"/>
<rect x="189.956" y="25.2139" width="3.85034" height="20.8268" fill="white"/>
<path d="M183.913 46.0471L174.11 25.2203H193.715L183.913 46.0471Z" fill="#EE5606"/>
<g filter="url(#filter1_d_107_4854)">
<path d="M168.497 18.1284L181.517 50.0196H155.477L168.497 18.1284Z" fill="#25FFB9"/>
<path d="M156.221 49.5196L168.497 19.4512L180.773 49.5196H156.221Z" stroke="#4DC59E"/>
</g>
<ellipse cx="216.969" cy="44.0784" rx="1.9733" ry="1.96803" fill="white"/>
<defs>
<filter id="filter0_di_107_4854" x="0.575195" y="21.3208" width="247.724" height="31.342" filterUnits="userSpaceOnUse" color-interpolation-filters="sRGB">
<feFlood flood-opacity="0" result="BackgroundImageFix"/>
<feColorMatrix in="SourceAlpha" type="matrix" values="0 0 0 0 0 0 0 0 0 0 0 0 0 0 0 0 0 0 127 0" result="hardAlpha"/>
<feOffset dy="3"/>
<feComposite in2="hardAlpha" operator="out"/>
<feColorMatrix type="matrix" values="0 0 0 0 0.208333 0 0 0 0 0.187391 0 0 0 0 0.118924 0 0 0 1 0"/>
<feBlend mode="normal" in2="BackgroundImageFix" result="effect1_dropShadow_107_4854"/>
<feBlend mode="normal" in="SourceGraphic" in2="effect1_dropShadow_107_4854" result="shape"/>
<feColorMatrix in="SourceAlpha" type="matrix" values="0 0 0 0 0 0 0 0 0 0 0 0 0 0 0 0 0 0 127 0" result="hardAlpha"/>
<feOffset dx="1" dy="1"/>
<feComposite in2="hardAlpha" operator="arithmetic" k2="-1" k3="1"/>
<feColorMatrix type="matrix" values="0 0 0 0 1 0 0 0 0 1 0 0 0 0 1 0 0 0 0.9 0"/>
<feBlend mode="normal" in2="shape" result="effect2_innerShadow_107_4854"/>
</filter>
<filter id="filter1_d_107_4854" x="137.477" y="0.128418" width="62.0405" height="67.8911" filterUnits="userSpaceOnUse" color-interpolation-filters="sRGB">
<feFlood flood-opacity="0" result="BackgroundImageFix"/>
<feColorMatrix in="SourceAlpha" type="matrix" values="0 0 0 0 0 0 0 0 0 0 0 0 0 0 0 0 0 0 127 0" result="hardAlpha"/>
<feOffset/>
<feGaussianBlur stdDeviation="9"/>
<feComposite in2="hardAlpha" operator="out"/>
<feColorMatrix type="matrix" values="0 0 0 0 0.216667 0 0 0 0 1 0 0 0 0 0.74986 0 0 0 1 0"/>
<feBlend mode="normal" in2="BackgroundImageFix" result="effect1_dropShadow_107_4854"/>
<feBlend mode="normal" in="SourceGraphic" in2="effect1_dropShadow_107_4854" result="shape"/>
</filter>
<radialGradient id="paint0_radial_107_4854" cx="0" cy="0" r="1" gradientUnits="userSpaceOnUse" gradientTransform="translate(94.0993 25.2137) rotate(18.7838) scale(60.3689 67.8824)">
<stop stop-color="#F3F7FF"/>
<stop offset="1" stop-color="#D8E1F7"/>
</radialGradient>
<radialGradient id="paint1_radial_107_4854" cx="0" cy="0" r="1" gradientUnits="userSpaceOnUse" gradientTransform="translate(94.0993 25.2137) rotate(18.7838) scale(60.3689 67.8824)">
<stop stop-color="#F3F7FF"/>
<stop offset="1" stop-color="#D8E1F7"/>
</radialGradient>
<radialGradient id="paint2_radial_107_4854" cx="0" cy="0" r="1" gradientUnits="userSpaceOnUse" gradientTransform="translate(94.0993 25.2137) rotate(18.7838) scale(60.3689 67.8824)">
<stop stop-color="#F3F7FF"/>
<stop offset="1" stop-color="#D8E1F7"/>
</radialGradient>
<radialGradient id="paint3_radial_107_4854" cx="0" cy="0" r="1" gradientUnits="userSpaceOnUse" gradientTransform="translate(94.0993 25.2137) rotate(18.7838) scale(60.3689 67.8824)">
<stop stop-color="#F3F7FF"/>
<stop offset="1" stop-color="#D8E1F7"/>
</radialGradient>
<radialGradient id="paint4_radial_107_4854" cx="0" cy="0" r="1" gradientUnits="userSpaceOnUse" gradientTransform="translate(94.0993 25.2137) rotate(18.7838) scale(60.3689 67.8824)">
<stop stop-color="#F3F7FF"/>
<stop offset="1" stop-color="#D8E1F7"/>
</radialGradient>
<radialGradient id="paint5_radial_107_4854" cx="0" cy="0" r="1" gradientUnits="userSpaceOnUse" gradientTransform="translate(94.0993 25.2137) rotate(18.7838) scale(60.3689 67.8824)">
<stop stop-color="#F3F7FF"/>
<stop offset="1" stop-color="#D8E1F7"/>
</radialGradient>
<radialGradient id="paint6_radial_107_4854" cx="0" cy="0" r="1" gradientUnits="userSpaceOnUse" gradientTransform="translate(94.0993 25.2137) rotate(18.7838) scale(60.3689 67.8824)">
<stop stop-color="#F3F7FF"/>
<stop offset="1" stop-color="#D8E1F7"/>
</radialGradient>
<radialGradient id="paint7_radial_107_4854" cx="0" cy="0" r="1" gradientUnits="userSpaceOnUse" gradientTransform="translate(94.0993 25.2137) rotate(18.7838) scale(60.3689 67.8824)">
<stop stop-color="#F3F7FF"/>
<stop offset="1" stop-color="#D8E1F7"/>
</radialGradient>
<radialGradient id="paint8_radial_107_4854" cx="0" cy="0" r="1" gradientUnits="userSpaceOnUse" gradientTransform="translate(94.0993 25.2137) rotate(18.7838) scale(60.3689 67.8824)">
<stop stop-color="#F3F7FF"/>
<stop offset="1" stop-color="#D8E1F7"/>
</radialGradient>
<radialGradient id="paint9_radial_107_4854" cx="0" cy="0" r="1" gradientUnits="userSpaceOnUse" gradientTransform="translate(94.0993 25.2137) rotate(18.7838) scale(60.3689 67.8824)">
<stop stop-color="#F3F7FF"/>
<stop offset="1" stop-color="#D8E1F7"/>
</radialGradient>
<radialGradient id="paint10_radial_107_4854" cx="0" cy="0" r="1" gradientUnits="userSpaceOnUse" gradientTransform="translate(94.0993 25.2137) rotate(18.7838) scale(60.3689 67.8824)">
<stop stop-color="#F3F7FF"/>
<stop offset="1" stop-color="#D8E1F7"/>
</radialGradient>
<radialGradient id="paint11_radial_107_4854" cx="0" cy="0" r="1" gradientUnits="userSpaceOnUse" gradientTransform="translate(236.332 25.2311) rotate(72.8793) scale(20.3261 21.0933)">
<stop stop-color="#F3F7FF"/>
<stop offset="1" stop-color="#D8E1F7"/>
</radialGradient>
<radialGradient id="paint12_radial_107_4854" cx="0" cy="0" r="1" gradientUnits="userSpaceOnUse" gradientTransform="translate(236.332 25.2311) rotate(72.8793) scale(20.3261 21.0933)">
<stop stop-color="#F3F7FF"/>
<stop offset="1" stop-color="#D8E1F7"/>
</radialGradient>
<radialGradient id="paint13_radial_107_4854" cx="0" cy="0" r="1" gradientUnits="userSpaceOnUse" gradientTransform="translate(25.1477 21.3208) rotate(85.6518) scale(4.18968 1.16832)">
<stop stop-color="#F3F7FF"/>
<stop offset="1" stop-color="#D8E1F7"/>
</radialGradient>
<radialGradient id="paint14_radial_107_4854" cx="0" cy="0" r="1" gradientUnits="userSpaceOnUse" gradientTransform="translate(25.1477 45.1858) rotate(85.6518) scale(4.18968 1.16832)">
<stop stop-color="#F3F7FF"/>
<stop offset="1" stop-color="#D8E1F7"/>
</radialGradient>
<radialGradient id="paint15_radial_107_4854" cx="0" cy="0" r="1" gradientUnits="userSpaceOnUse" gradientTransform="translate(99.7708 21.3208) rotate(85.6518) scale(4.18968 1.16832)">
<stop stop-color="#F3F7FF"/>
<stop offset="1" stop-color="#D8E1F7"/>
</radialGradient>
<radialGradient id="paint16_radial_107_4854" cx="0" cy="0" r="1" gradientUnits="userSpaceOnUse" gradientTransform="translate(99.7708 45.1868) rotate(85.6518) scale(4.18968 1.16832)">
<stop stop-color="#F3F7FF"/>
<stop offset="1" stop-color="#D8E1F7"/>
</radialGradient>
</defs>
</svg>
