<svg width="394" height="872" viewBox="0 0 394 872" preserveAspectRatio="none" fill="none" xmlns="http://www.w3.org/2000/svg">
<path d="M134.135 87.483L41.8512 101.075C37.3504 101.738 33.0219 103.272 29.1081 105.591L25.1921 107.912C14.5568 114.214 8.03516 125.66 8.03516 138.022V722.853C8.03516 737.918 17.6724 751.29 31.899 756.245C38.7027 758.615 46.294 761.292 54.0352 764.079C67.7006 768.999 100.819 771.708 129.465 773.038C148.614 773.926 164.035 789.5 164.035 808.67V828.579C164.035 847.633 179.481 863.079 198.535 863.079C217.589 863.079 233.035 847.633 233.035 828.579V803.727C233.035 782.674 251.623 766.4 272.621 764.897C275.43 764.695 278.25 764.427 281.035 764.079C295.656 762.251 332.854 750.643 361.542 741.088C375.653 736.388 385.035 723.12 385.035 708.247V139.71C385.035 126.453 377.573 114.273 365.454 108.899C354.444 104.017 341.773 98.8612 332.035 96.0791C320.259 92.7144 286.83 88.8256 258.131 85.9971C240.003 84.2104 226.035 69.0592 226.035 50.843V39.0791C226.035 21.9583 212.156 8.0791 195.035 8.0791C177.914 8.0791 164.035 21.9583 164.035 39.0791V52.8565C164.035 70.2167 151.31 84.9534 134.135 87.483Z" stroke="url(#paint0_linear_107_2995)" stroke-opacity="0.48" stroke-width="16"/>
<path fill-rule="evenodd" clip-rule="evenodd" d="M354.184 124.29V124.121L345.922 122.101C297.437 110.244 246.652 103.945 194.35 103.945C142.048 103.945 91.2632 110.244 42.7777 122.101L34.5156 124.121V124.191C38.0863 126.824 42.1558 129.832 45.7797 132.523C93.2986 120.938 143.074 114.781 194.35 114.781C245.78 114.781 295.7 120.975 343.348 132.627V134.42L354.184 124.29Z" fill="#FFF5CE"/>
<rect x="185.738" y="31.1377" width="13" height="74.2669" transform="rotate(-0.6807 185.738 31.1377)" fill="#FFF5CE"/>
<g filter="url(#filter0_i_107_2995)">
<path fill-rule="evenodd" clip-rule="evenodd" d="M45.3555 714.599V132.627C93.0033 120.974 142.924 114.781 194.353 114.781C245.783 114.781 295.703 120.974 343.351 132.627V714.599C295.703 726.252 245.783 732.445 194.353 732.445C142.924 732.445 93.0033 726.252 45.3555 714.599Z" fill="url(#paint1_linear_107_2995)"/>
</g>
<path d="M71.5527 686.412V686.794L71.9216 686.895C110.898 697.487 151.733 703.118 193.803 703.118C235.872 703.118 276.707 697.487 315.684 686.895L316.053 686.794V686.412V157.939V157.557L315.684 157.456C276.707 146.864 235.872 141.233 193.803 141.233C151.733 141.233 110.898 146.864 71.9216 157.456L71.5527 157.557V157.939V686.412Z" fill="url(#paint2_linear_107_2995)" stroke="url(#paint3_linear_107_2995)"/>
<path d="M33.5156 714.6C33.5156 720.054 37.2423 724.802 42.5401 726.097C91.103 737.973 141.967 744.282 194.35 744.282C246.733 744.282 297.597 737.973 346.16 726.097C351.458 724.802 355.184 720.054 355.184 714.6V132.627C355.184 127.173 351.458 122.425 346.16 121.13C297.597 109.253 246.733 102.945 194.35 102.945C141.967 102.945 91.103 109.253 42.5401 121.13C37.2423 122.425 33.5156 127.173 33.5156 132.627V714.6ZM46.3518 151.465C46.3518 140.86 53.5862 131.606 63.9236 129.41C105.914 120.486 149.558 115.781 194.35 115.781C239.142 115.781 282.786 120.486 324.776 129.41C335.114 131.606 342.348 140.86 342.348 151.465V695.762C342.348 706.367 335.114 715.62 324.776 717.817C282.786 726.74 239.142 731.446 194.35 731.446C149.558 731.446 105.914 726.74 63.9236 717.817C53.5862 715.62 46.3518 706.367 46.3518 695.762V151.465Z" fill="#C1BDAB" stroke="#FFF6CF" stroke-width="2"/>
<path fill-rule="evenodd" clip-rule="evenodd" d="M354.184 723.034V723.105L345.922 725.126C297.437 736.983 246.652 743.282 194.35 743.282C142.048 743.282 91.2632 736.983 42.7777 725.126L34.8984 723.199C38.2735 720.901 42.2391 717.959 46.2948 714.83C93.6582 726.334 143.259 732.446 194.35 732.446C245.78 732.446 295.7 726.252 343.348 714.6V713.492L354.184 723.034Z" fill="#967B39"/>
<path fill-rule="evenodd" clip-rule="evenodd" d="M61.6098 700.901C61.6098 701.369 61.9349 701.775 62.3926 701.876C104.787 711.24 148.956 716.191 194.353 716.191C239.751 716.191 283.92 711.24 326.314 701.876C326.772 701.775 327.097 701.369 327.097 700.901V146.326C327.097 145.857 326.772 145.451 326.314 145.35C283.92 135.987 239.751 131.035 194.353 131.035C148.956 131.035 104.787 135.987 62.3926 145.35C61.9349 145.451 61.6098 145.857 61.6098 146.326V700.901ZM46.1177 132.441C45.6699 132.55 45.3555 132.951 45.3555 133.412V713.815C45.3555 714.275 45.6699 714.676 46.1177 714.785C93.5356 726.318 143.198 732.445 194.353 732.445C245.509 732.445 295.171 726.318 342.589 714.785C343.037 714.676 343.351 714.275 343.351 713.815V133.412C343.351 132.951 343.037 132.55 342.589 132.441C295.171 120.908 245.509 114.781 194.353 114.781C143.198 114.781 93.5356 120.908 46.1177 132.441Z" fill="#99B7A5" stroke="#242308" stroke-width="11"/>
<rect x="185.055" y="743.242" width="12" height="83.6491" transform="rotate(-0.6807 185.055 743.242)" fill="url(#paint4_linear_107_2995)"/>
<g filter="url(#filter1_f_107_2995)">
<ellipse cx="55.1001" cy="432.562" rx="290.829" ry="2.74463" transform="rotate(-90 55.1001 432.562)" fill="white"/>
</g>
<g filter="url(#filter2_f_107_2995)">
<path d="M228.344 104.734C153.144 100.734 93.3438 111.067 72.8438 116.734C91.8059 113.537 143.953 107.263 200.844 107.734C257.735 108.204 324.215 119.263 350.344 124.734C341.01 119.734 303.544 108.734 228.344 104.734Z" fill="#FFFCE3"/>
</g>
<g filter="url(#filter3_f_107_2995)">
<ellipse cx="182.225" cy="154.257" rx="95.2854" ry="6.5" fill="#FFF173"/>
</g>
<defs>
<filter id="filter0_i_107_2995" x="45.3555" y="114.781" width="303.996" height="623.665" filterUnits="userSpaceOnUse" color-interpolation-filters="sRGB">
<feFlood flood-opacity="0" result="BackgroundImageFix"/>
<feBlend mode="normal" in="SourceGraphic" in2="BackgroundImageFix" result="shape"/>
<feColorMatrix in="SourceAlpha" type="matrix" values="0 0 0 0 0 0 0 0 0 0 0 0 0 0 0 0 0 0 127 0" result="hardAlpha"/>
<feOffset dx="30" dy="30"/>
<feGaussianBlur stdDeviation="3"/>
<feComposite in2="hardAlpha" operator="arithmetic" k2="-1" k3="1"/>
<feColorMatrix type="matrix" values="0 0 0 0 0 0 0 0 0 0 0 0 0 0 0 0 0 0 0.25 0"/>
<feBlend mode="normal" in2="shape" result="effect1_innerShadow_107_2995"/>
</filter>
<filter id="filter1_f_107_2995" x="40.3555" y="129.734" width="29.4893" height="605.657" filterUnits="userSpaceOnUse" color-interpolation-filters="sRGB">
<feFlood flood-opacity="0" result="BackgroundImageFix"/>
<feBlend mode="normal" in="SourceGraphic" in2="BackgroundImageFix" result="shape"/>
<feGaussianBlur stdDeviation="6" result="effect1_foregroundBlur_107_2995"/>
</filter>
<filter id="filter2_f_107_2995" x="62.8438" y="93.8359" width="297.5" height="40.8977" filterUnits="userSpaceOnUse" color-interpolation-filters="sRGB">
<feFlood flood-opacity="0" result="BackgroundImageFix"/>
<feBlend mode="normal" in="SourceGraphic" in2="BackgroundImageFix" result="shape"/>
<feGaussianBlur stdDeviation="5" result="effect1_foregroundBlur_107_2995"/>
</filter>
<filter id="filter3_f_107_2995" x="12.9395" y="73.7573" width="338.571" height="161" filterUnits="userSpaceOnUse" color-interpolation-filters="sRGB">
<feFlood flood-opacity="0" result="BackgroundImageFix"/>
<feBlend mode="normal" in="SourceGraphic" in2="BackgroundImageFix" result="shape"/>
<feGaussianBlur stdDeviation="37" result="effect1_foregroundBlur_107_2995"/>
</filter>
<linearGradient id="paint0_linear_107_2995" x1="8.03516" y1="265" x2="398.844" y2="314" gradientUnits="userSpaceOnUse">
<stop stop-color="#414045"/>
<stop offset="1" stop-color="#414045" stop-opacity="0"/>
</linearGradient>
<linearGradient id="paint1_linear_107_2995" x1="-110.356" y1="-354.921" x2="323.644" y2="683.079" gradientUnits="userSpaceOnUse">
<stop stop-color="#CBC9CE"/>
<stop offset="1" stop-color="#18151A"/>
</linearGradient>
<linearGradient id="paint2_linear_107_2995" x1="-55.1832" y1="-284.789" x2="367.987" y2="625.944" gradientUnits="userSpaceOnUse">
<stop stop-color="#4E4757"/>
<stop offset="1" stop-color="#18151A"/>
</linearGradient>
<linearGradient id="paint3_linear_107_2995" x1="406.823" y1="-108.929" x2="271.689" y2="548.298" gradientUnits="userSpaceOnUse">
<stop stop-color="#E7E7E7"/>
<stop offset="1" stop-color="#D7D7D7" stop-opacity="0"/>
</linearGradient>
<linearGradient id="paint4_linear_107_2995" x1="191.055" y1="743.242" x2="191.055" y2="826.892" gradientUnits="userSpaceOnUse">
<stop stop-color="#CCAF67"/>
<stop offset="1" stop-color="white"/>
</linearGradient>
</defs>
</svg>
