<svg width="28" height="24" viewBox="0 0 28 24" fill="none" xmlns="http://www.w3.org/2000/svg">
<path fill-rule="evenodd" clip-rule="evenodd" d="M5.73136 0.678881L0.910445 10.8052C0.8921 10.8429 0.886286 10.8854 0.893855 10.9266C0.901423 10.9678 0.921976 11.0055 0.952508 11.0342L13.9726 23.5106C14.0096 23.5461 14.0589 23.5659 14.1101 23.5659C14.1614 23.5659 14.2106 23.5461 14.2476 23.5106L27.2677 11.035C27.2983 11.0063 27.3188 10.9686 27.3264 10.9274C27.334 10.8862 27.3282 10.8437 27.3098 10.806L22.4889 0.67966C22.4733 0.645651 22.4483 0.616842 22.4168 0.596674C22.3853 0.576507 22.3487 0.565835 22.3113 0.565933H5.91052C5.87294 0.565466 5.83603 0.575881 5.80424 0.595922C5.77245 0.615963 5.74714 0.644775 5.73136 0.678881Z" fill="#50AF95"/>
<path fill-rule="evenodd" clip-rule="evenodd" d="M15.7846 11.8452C15.6912 11.8522 15.2082 11.881 14.1309 11.881C13.2741 11.881 12.6657 11.8553 12.4523 11.8452C9.14097 11.6995 6.66936 11.1231 6.66936 10.4329C6.66936 9.74279 9.14097 9.16715 12.4523 9.01915V11.2711C12.6688 11.2867 13.2889 11.3233 14.1457 11.3233C15.1739 11.3233 15.6888 11.2804 15.7815 11.2719V9.02071C19.0858 9.16793 21.552 9.74435 21.552 10.4329C21.552 11.1215 19.0866 11.698 15.7815 11.8444L15.7846 11.8452ZM15.7846 8.7878V6.77266H20.396V3.69971H7.8409V6.77266H12.4515V8.78702C8.70398 8.95917 5.88574 9.70151 5.88574 10.5911C5.88574 11.4806 8.70398 12.2222 12.4515 12.3951V18.8526H15.7838V12.3928C19.5228 12.2206 22.3364 11.4791 22.3364 10.5903C22.3364 9.70151 19.5251 8.95995 15.7838 8.78702L15.7846 8.7878Z" fill="white"/>
</svg>
