<svg width="32" height="32" viewBox="0 0 32 32" fill="none" xmlns="http://www.w3.org/2000/svg">
<path fill-rule="evenodd" clip-rule="evenodd" d="M15.1716 6.09229C8.70759 6.19612 3.5 11.3963 3.5 17.7961C3.5 24.1958 8.70759 29.396 15.1716 29.4998V6.09229Z" fill="#4E927F"/>
<path d="M16 0.546021L18.4896 3.5313L21.9555 1.70686L23.0898 5.39849L27.0043 5.01264L26.6106 8.84861L30.3779 9.9601L28.516 13.3564L31.5625 15.796L28.516 18.2356L30.3779 21.6319L26.6106 22.7434L27.0043 26.5794L23.0898 26.1935L21.9555 29.8852L18.4896 28.0607L16 31.046L13.5104 28.0607L10.0445 29.8852L8.91023 26.1935L4.99565 26.5794L5.38941 22.7434L1.62212 21.6319L3.48395 18.2356L0.4375 15.796L3.48395 13.3564L1.62212 9.9601L5.38941 8.84861L4.99565 5.01264L8.91023 5.39849L10.0445 1.70686L13.5104 3.5313L16 0.546021Z" fill="#EEC73E"/>
<rect x="11.8926" y="10.474" width="7.65234" height="14.7896" fill="white"/>
<rect width="1.67395" height="5.47762" transform="matrix(1 0 0 -1 14.8809 29.4998)" fill="white"/>
<rect width="1.67395" height="5.47762" transform="matrix(1 0 0 -1 14.8809 11.5699)" fill="white"/>
<rect x="11.8926" y="8.474" width="7.65234" height="14.7896" fill="white"/>
<rect width="1.67395" height="5.47762" transform="matrix(1 0 0 -1 14.8809 27.4998)" fill="white"/>
<rect width="1.67395" height="5.47762" transform="matrix(1 0 0 -1 14.8809 9.5699)" fill="white"/>
</svg>
