<svg width="17" height="21" viewBox="0 0 17 21" fill="none" xmlns="http://www.w3.org/2000/svg">
<mask id="path-1-outside-1_107_5173" maskUnits="userSpaceOnUse" x="-0.519531" y="0.322464" width="18" height="20" fill="black">
<rect fill="white" x="-0.519531" y="0.322464" width="18" height="20"/>
<path fill-rule="evenodd" clip-rule="evenodd" d="M8.42461 2.33187L8.41113 2.32246L8.40704 2.34489L2.48047 6.73518L3.07131 7.54197L8.01367 3.92252V18.1804H9.01367V3.90459L14.147 7.54638L14.7256 6.73078L8.42835 2.33448L8.42676 2.33028L8.42461 2.33187Z"/>
</mask>
<path fill-rule="evenodd" clip-rule="evenodd" d="M8.42461 2.33187L8.41113 2.32246L8.40704 2.34489L2.48047 6.73518L3.07131 7.54197L8.01367 3.92252V18.1804H9.01367V3.90459L14.147 7.54638L14.7256 6.73078L8.42835 2.33448L8.42676 2.33028L8.42461 2.33187Z" fill="#53D0A8"/>
<path d="M8.42461 2.33187L7.27974 3.97177C7.9844 4.46372 8.92455 4.4505 9.6151 3.93895L8.42461 2.33187ZM8.41113 2.32246L9.556 0.682562C8.99782 0.292882 8.27977 0.213874 7.65022 0.472867C7.02067 0.731861 6.56608 1.29329 6.44371 1.96294L8.41113 2.32246ZM8.40704 2.34489L9.59753 3.95197C10.0055 3.64979 10.2832 3.20379 10.3745 2.70441L8.40704 2.34489ZM2.48047 6.73518L1.28997 5.12809C0.40584 5.78304 0.216793 7.02915 0.866888 7.91685L2.48047 6.73518ZM3.07131 7.54197L1.45773 8.72364C2.11035 9.6148 3.36183 9.80817 4.25298 9.15555L3.07131 7.54197ZM8.01367 3.92252H10.0137C10.0137 3.16908 9.59025 2.47958 8.91828 2.1388C8.24632 1.79801 7.43986 1.86378 6.832 2.30894L8.01367 3.92252ZM8.01367 18.1804H6.01367C6.01367 19.2849 6.9091 20.1804 8.01367 20.1804V18.1804ZM9.01367 18.1804V20.1804C10.1182 20.1804 11.0137 19.2849 11.0137 18.1804H9.01367ZM9.01367 3.90459L10.1709 2.27339C9.56083 1.84057 8.76022 1.78438 8.09565 2.12772C7.43109 2.47107 7.01367 3.15657 7.01367 3.90459H9.01367ZM14.147 7.54638L12.9897 9.17757C13.4223 9.48449 13.9592 9.60698 14.4821 9.5181C15.005 9.42922 15.4712 9.13624 15.7782 8.70362L14.147 7.54638ZM14.7256 6.73078L16.3568 7.88802C16.6652 7.45327 16.7873 6.91337 16.696 6.38819C16.6047 5.86302 16.3075 5.39602 15.8705 5.09088L14.7256 6.73078ZM8.42835 2.33448L6.55775 3.04221C6.70028 3.41892 6.95323 3.74382 7.28348 3.97439L8.42835 2.33448ZM8.42676 2.33028L10.2974 1.62255C10.0756 1.03637 9.59185 0.58805 8.99053 0.411382C8.38922 0.234715 7.73986 0.350134 7.23626 0.723193L8.42676 2.33028ZM9.56947 0.691968L9.556 0.682562L7.26627 3.96237L7.27974 3.97177L9.56947 0.691968ZM6.44371 1.96294L6.43961 1.98536L10.3745 2.70441L10.3786 2.68199L6.44371 1.96294ZM3.67097 8.34226L9.59753 3.95197L7.21654 0.737804L1.28997 5.12809L3.67097 8.34226ZM4.68489 6.36029L4.09405 5.5535L0.866888 7.91685L1.45773 8.72364L4.68489 6.36029ZM6.832 2.30894L1.88963 5.92839L4.25298 9.15555L9.19535 5.5361L6.832 2.30894ZM10.0137 18.1804V3.92252H6.01367V18.1804H10.0137ZM9.01367 16.1804H8.01367V20.1804H9.01367V16.1804ZM7.01367 3.90459V18.1804H11.0137V3.90459H7.01367ZM7.85643 5.53578L12.9897 9.17757L15.3042 5.91519L10.1709 2.27339L7.85643 5.53578ZM15.7782 8.70362L16.3568 7.88802L13.0944 5.57354L12.5158 6.38914L15.7782 8.70362ZM15.8705 5.09088L9.57322 0.694581L7.28348 3.97439L13.5807 8.37069L15.8705 5.09088ZM6.55616 3.038L6.55775 3.04221L10.2989 1.62676L10.2974 1.62255L6.55616 3.038ZM9.6151 3.93895L9.61726 3.93736L7.23626 0.723193L7.23411 0.724787L9.6151 3.93895Z" fill="#67E1BA" fill-opacity="0.18" mask="url(#path-1-outside-1_107_5173)"/>
</svg>
