<svg width="21" height="23" viewBox="0 0 21 23" fill="none" xmlns="http://www.w3.org/2000/svg">
<path fill-rule="evenodd" clip-rule="evenodd" d="M10.0547 8.81695C13.5335 8.24501 16.2477 10.7357 16.715 13.62C17.2665 17.0209 14.7983 19.772 11.9591 20.2537C8.48236 20.8421 5.72105 18.3452 5.25366 15.4445C4.75961 12.3777 6.82188 9.34789 10.0547 8.81695ZM4.19177 14.7414C3.93552 14.069 4.41112 12.3982 4.68171 11.7956C5.08966 10.8915 5.555 10.2663 6.11054 9.70049C6.65584 9.14494 7.32413 8.6509 8.19127 8.26141C8.62996 8.06461 10.6779 7.41272 11.1309 7.73661C11.42 7.94366 11.2211 8.17531 10.8808 8.20811C10.5897 8.23886 10.3458 8.23066 10.0403 8.27371C9.56065 8.34136 9.083 8.46435 8.64431 8.6468C7.76692 9.0076 7.01868 9.52829 6.51234 10.0305C5.97935 10.5574 5.48735 11.279 5.11426 12.1523C4.75756 12.9927 4.71656 13.5442 4.66326 14.4011C4.63867 14.7906 4.57512 14.8213 4.19177 14.7414ZM10.2002 7.44142C6.56769 7.83091 3.45788 11.1191 3.89043 15.2457C4.28197 18.9889 7.56192 22.0516 11.7746 21.619C15.4236 21.2439 18.476 17.9311 18.0742 13.8045C17.7154 10.1166 14.374 6.99452 10.2002 7.44142Z" fill="#EED79C"/>
<path fill-rule="evenodd" clip-rule="evenodd" d="M9.8993 5.47097L10.176 5.45867L11.7258 5.45662L12.0087 5.46482C11.8816 5.68007 11.2318 6.37706 10.9386 6.53696L9.8993 5.47097ZM14.5958 2.78141C14.3006 3.3677 13.8291 3.19756 12.9927 3.19756L7.84933 3.20166C7.50698 3.18116 7.40244 3.03766 7.26304 2.77116L14.5958 2.78141ZM6.93914 2.23817C6.54145 2.23817 6.4369 2.02497 6.25445 1.81793L15.5634 1.83022C15.3625 1.99422 15.303 2.23817 14.8746 2.23817H6.93914ZM5.95311 1.25213C5.52466 1.25213 5.35041 0.971287 5.18847 0.73144L16.6027 0.72324C16.4695 0.979487 16.2891 1.25213 15.877 1.25213H5.95311ZM5.78501 8.89648L6.18065 8.54798C5.98591 8.20974 4.62882 6.9654 4.25983 6.58616C1.05982 3.29185 0.889674 3.9007 2.26726 2.47392C2.58705 2.14182 2.88225 1.84047 3.21434 1.52068C3.51979 1.22753 3.80883 0.70684 4.40538 0.805239L5.60666 1.93272C5.78501 2.12132 5.80756 2.18692 5.97771 2.33657L10.5081 6.88545L11.4511 6.8793C11.693 6.49596 13.1178 5.12248 13.5647 4.68994C14.114 4.15694 15.1103 2.98846 15.6351 2.53952C15.9857 2.23817 16.164 1.99422 16.4715 1.68673C17.5129 0.643291 17.4104 0.401395 18.4149 1.37308C18.7265 1.67443 18.993 1.94092 19.2964 2.25047C20.4382 3.41485 20.674 3.3677 19.8888 4.18769L15.754 8.49878C15.8299 8.61973 16.0308 8.76528 16.1599 8.91083C16.2337 8.60128 17.2341 7.67469 17.5334 7.3959C18.173 6.79731 19.0196 5.82767 19.6654 5.16348C20.4628 4.34759 21.5821 3.79 20.2845 2.52722C19.7884 2.04342 19.3251 1.58218 18.8413 1.08404C18.1586 0.380895 18.1832 0.182048 16.7934 0.184098H5.03882C3.61204 0.184098 3.67764 0.333746 2.96835 1.06354C2.4661 1.57603 2.00076 2.03727 1.49237 2.54362C0.830225 3.20166 0.612928 3.6793 1.40217 4.45009C1.91671 4.95028 2.3759 5.41563 2.88225 5.92402C3.30864 6.35246 5.65586 8.60743 5.78501 8.89648Z" fill="#C24700"/>
<path fill-rule="evenodd" clip-rule="evenodd" d="M1.59425 3.62739C1.52045 3.28709 1.83 3.21124 2.07395 3.41624C2.21129 3.53309 2.40399 3.72784 2.57004 3.91028C3.05793 4.45148 5.45025 6.68799 5.5097 6.89914C5.6245 7.30299 5.1981 7.24764 5.01771 7.10004L1.59425 3.62739ZM6.17594 8.54937C6.42604 8.43252 6.74378 8.14347 7.04923 7.96513C7.34647 7.79293 7.70522 7.61048 8.07831 7.44853C8.9926 7.05494 9.55839 7.08979 10.5034 6.88684L5.97299 2.33796C5.80285 2.18831 5.7803 2.12271 5.60195 1.93411L4.40066 0.806627C3.80412 0.708228 3.51508 1.22892 3.20963 1.52207C2.87754 1.84186 2.58234 2.14321 2.26254 2.4753C0.884963 3.90208 1.05511 3.29324 4.25512 6.58755C4.62411 6.96679 5.98119 8.21112 6.17594 8.54937Z" fill="#FE8A04"/>
<path fill-rule="evenodd" clip-rule="evenodd" d="M19.34 3.50325C19.6413 3.17935 19.9221 3.60985 19.6823 3.83944C19.465 4.04854 19.0817 3.77999 19.34 3.50325ZM17.4847 2.83496C17.907 2.53771 18.1653 3.124 17.8435 3.3454C17.5032 3.5791 17.1075 3.0994 17.4847 2.83496ZM18.6983 2.64636C18.5835 2.76526 18.4318 2.76936 18.3211 2.66071C18.1366 2.47621 18.2863 2.38396 18.3683 2.30812C18.6471 2.05187 18.8849 2.44751 18.6983 2.64636ZM11.4517 6.87955L11.8125 6.91235C11.7489 6.48391 12.1978 6.21331 12.3885 6.04931C12.698 5.78077 12.8641 5.58192 13.1326 5.31337L16.0313 2.37166C16.2486 2.12567 17.2715 0.899785 17.5934 1.13348C17.7615 1.33643 17.7164 1.44508 17.5401 1.62547C16.6975 2.49261 12.5504 6.54746 12.288 6.9472C12.5443 7.09275 13.6656 7.3367 14.1351 7.55194C14.4221 7.68314 14.7132 7.84099 14.9612 7.99064C15.2318 8.15463 15.4696 8.36988 15.7546 8.49903L19.8893 4.18794C20.6745 3.36795 20.4387 3.4151 19.2969 2.25072C18.9935 1.94117 18.727 1.67467 18.4154 1.37333C17.4109 0.401641 17.5134 0.643538 16.472 1.68697C16.1645 1.99447 15.9862 2.23842 15.6357 2.53976C15.1109 2.98871 14.1146 4.15719 13.5652 4.69018C13.1183 5.12273 11.6936 6.49621 11.4517 6.87955Z" fill="#FE8A04"/>
<path fill-rule="evenodd" clip-rule="evenodd" d="M10.2036 7.44035C14.3774 6.99346 17.7188 10.1156 18.0776 13.8035C18.4794 17.9301 15.427 21.2428 11.778 21.618C7.56533 22.0505 4.28538 18.9878 3.89384 15.2446C3.46129 11.118 6.5711 7.82985 10.2036 7.44035ZM6.17955 8.54734L5.78391 8.89583C5.54201 9.24023 5.21607 9.37963 4.49448 10.4723C4.15623 10.9848 3.78519 11.8211 3.59454 12.5284C2.33996 17.2167 5.75931 22.1653 10.9478 22.1837C18.1657 22.2083 21.1443 13.3012 16.1588 8.91018C16.0297 8.76464 15.8288 8.61909 15.7529 8.49814C15.468 8.36899 15.2302 8.15374 14.9596 7.98975C14.7115 7.8401 14.4204 7.68225 14.1334 7.55105C13.664 7.33581 12.5427 7.09186 12.2864 6.94631L11.8108 6.91146L11.45 6.87866L10.507 6.88481C9.56201 7.08776 8.99621 7.05291 8.08193 7.4465C7.70883 7.60845 7.35009 7.7909 7.05284 7.9631C6.7474 8.14144 6.42965 8.43049 6.17955 8.54734Z" fill="#E97205"/>
<path fill-rule="evenodd" clip-rule="evenodd" d="M10.4271 9.28141C13.4713 8.93291 15.921 11.2576 16.2244 13.9082C16.577 16.9791 14.2831 19.5149 11.5833 19.7732C8.44275 20.0745 6.02993 17.8462 5.73474 15.0992C5.39854 11.9833 7.71091 9.59301 10.4271 9.28141ZM10.0561 8.81607C6.82327 9.34701 4.761 12.3769 5.25504 15.4436C5.72244 18.3443 8.48375 20.8412 11.9605 20.2529C14.7997 19.7711 17.2679 17.0201 16.7164 13.6192C16.249 10.7348 13.5349 8.24412 10.0561 8.81607Z" fill="#E97205"/>
<path fill-rule="evenodd" clip-rule="evenodd" d="M4.20086 14.7415C4.58421 14.8214 4.64776 14.7907 4.67236 14.4012C4.72566 13.5443 4.76666 12.9929 5.12335 12.1524C5.49645 11.2791 5.98844 10.5575 6.52143 10.0306C7.02778 9.52841 7.77602 9.00771 8.6534 8.64692C9.0921 8.46447 9.56974 8.34147 10.0494 8.27382C10.3549 8.23077 10.5988 8.23897 10.8899 8.20822C11.2302 8.17542 11.4291 7.94378 11.14 7.73673C10.687 7.41284 8.63905 8.06473 8.20036 8.26152C7.33322 8.65102 6.66493 9.14506 6.11964 9.7006C5.5641 10.2664 5.09875 10.8916 4.69081 11.7957C4.42021 12.3984 3.94462 14.0691 4.20086 14.7415Z" fill="white"/>
<path fill-rule="evenodd" clip-rule="evenodd" d="M11.8093 6.91233L12.2849 6.94718C12.5473 6.54744 16.6944 2.4926 17.537 1.62546C17.7133 1.44506 17.7584 1.33641 17.5903 1.13346C17.2684 0.899768 16.2455 2.12565 16.0282 2.37165L13.1295 5.31336C12.861 5.5819 12.6949 5.78075 12.3854 6.0493C12.1947 6.21329 11.7458 6.48389 11.8093 6.91233Z" fill="#FFAF50"/>
<path fill-rule="evenodd" clip-rule="evenodd" d="M2.57917 3.90859C2.41312 3.72614 2.22042 3.5314 2.08307 3.41455C1.83913 3.20955 1.52958 3.2854 1.60338 3.6257L5.02683 7.09835C5.20723 7.24594 5.63362 7.30129 5.51882 6.89745C5.45938 6.6863 3.06706 4.44978 2.57917 3.90859Z" fill="#FFAF50"/>
<path fill-rule="evenodd" clip-rule="evenodd" d="M10.9441 6.53688C11.2373 6.37698 11.8871 5.67999 12.0142 5.46474L11.7313 5.45654L10.1815 5.45859L9.90479 5.47089L10.9441 6.53688Z" fill="#0F1119"/>
<path fill-rule="evenodd" clip-rule="evenodd" d="M17.482 2.83504C17.1048 3.09949 17.5004 3.57918 17.8407 3.34548C18.1626 3.12409 17.9043 2.5378 17.482 2.83504Z" fill="#E77D02"/>
<path fill-rule="evenodd" clip-rule="evenodd" d="M15.4748 14.5311H15.8578C16.3858 16.0682 14.8388 18.4698 13.0168 19.3367C10.6251 20.4755 9.89823 19.378 11.0278 19.2857C11.5017 19.2493 11.7399 19.2347 12.1819 19.0939C13.4465 18.6883 14.3894 17.8846 14.9689 16.6801C15.3545 15.8812 15.2562 15.0726 15.4748 14.5311ZM9.34818 13.334C9.73616 12.8677 10.3525 11.4278 10.7822 11.2359C11.072 11.2165 12.0788 13.0669 12.2433 13.3558C12.8498 13.2344 13.7068 12.5958 14.247 12.705C14.328 13.1106 13.7731 16.3378 13.584 16.7311C13.2157 17.5033 10.544 17.3868 9.60602 17.2872C7.59492 17.0687 8.07621 17.0322 7.42303 13.6205C7.34937 13.2417 7.16029 12.7997 7.49916 12.6953C7.74717 12.6176 8.91601 13.2538 9.34818 13.334ZM11.0425 9.77168L11.0622 10.1554C10.4507 10.3763 9.74107 10.2525 8.93074 10.6337C5.84657 12.081 6.46291 14.7545 6.07739 14.9876C5.24496 15.4854 5.52489 11.486 8.81533 10.0971C9.39484 9.85425 10.4409 9.55314 11.0425 9.77168ZM5.42913 15.211C5.65504 18.0084 8.0934 20.2764 11.1898 20.0894C13.999 19.9195 16.43 17.4402 16.1918 14.3733C15.9757 11.5565 13.5177 9.21075 10.3574 9.45358C7.53108 9.6697 5.18112 12.1344 5.42913 15.211Z" fill="#FFDC28"/>
<path fill-rule="evenodd" clip-rule="evenodd" d="M10.0549 8.95692C13.4951 8.49069 16.2748 11.038 16.6677 13.964C17.1318 17.4365 14.6001 20.1464 11.6437 20.5787C8.10276 21.0959 5.3329 18.5195 4.92036 15.557C4.42925 12.0238 7.01495 9.36973 10.0549 8.95692ZM4.17388 15.0155C3.53298 15.0082 3.78344 14.1364 3.86939 13.6362C4.76566 8.52226 10.1826 7.3834 11.0224 7.95647C11.0568 8.38142 10.9291 8.35471 10.5215 8.37899C8.79768 8.47612 7.49623 9.04677 6.28319 10.1905C4.06092 12.2861 4.52748 14.5711 4.17388 15.0155ZM3.53543 15.3773C3.79572 19.1193 7.25068 22.3222 11.4374 21.9434C15.2877 21.5961 18.3866 18.3179 18.0526 14.1437C17.7506 10.3775 14.4356 7.27898 10.2047 7.58009C6.33722 7.85691 3.24568 11.1982 3.53543 15.3773Z" fill="#EED79C"/>
<path fill-rule="evenodd" clip-rule="evenodd" d="M3.54479 15.3779C3.25503 11.1988 6.34657 7.85747 10.2141 7.58065C14.445 7.27954 17.76 10.378 18.062 14.1443C18.396 18.3185 15.2971 21.5967 11.4467 21.9439C7.26003 22.3227 3.80508 19.1198 3.54479 15.3779ZM10.1453 7.06585C6.01753 7.46409 2.61904 10.9074 3.01193 15.4653C3.35816 19.4817 6.97519 22.8642 11.5401 22.4684C15.5966 22.1139 18.9976 18.5443 18.5973 14.0496C18.2462 10.0988 14.6512 6.63362 10.1453 7.06585Z" fill="#E97205"/>
<path fill-rule="evenodd" clip-rule="evenodd" d="M5.41755 15.2091C5.16954 12.1325 7.5195 9.66781 10.3458 9.45169C13.5061 9.20887 15.9641 11.5546 16.1802 14.3714C16.4184 17.4383 13.9874 19.9176 11.1783 20.0876C8.08182 20.2745 5.64346 18.0065 5.41755 15.2091ZM10.0561 8.95633C7.01611 9.36913 4.43042 12.0232 4.92153 15.5564C5.33406 18.5189 8.10392 21.0953 11.6448 20.5781C14.6013 20.1458 17.133 17.4359 16.6689 13.9634C16.276 11.0374 13.4963 8.4901 10.0561 8.95633Z" fill="#E97205"/>
<path fill-rule="evenodd" clip-rule="evenodd" d="M4.18642 15.0154C4.54002 14.5711 4.07347 12.2861 6.29574 10.1904C7.50878 9.04673 8.81023 8.47608 10.534 8.37895C10.9416 8.35467 11.0693 8.38138 11.035 7.95643C10.1952 7.38336 4.77821 8.52222 3.88194 13.6362C3.79599 14.1364 3.54553 15.0082 4.18642 15.0154Z" fill="white"/>
<path fill-rule="evenodd" clip-rule="evenodd" d="M15.4797 14.53C15.2612 15.0715 15.3594 15.8801 14.9739 16.679C14.3944 17.8834 13.4514 18.6872 12.1868 19.0927C11.7448 19.2335 11.5066 19.2481 11.0327 19.2845C9.90316 19.3768 10.63 20.4744 13.0217 19.3355C14.8437 18.4686 16.3907 16.0671 15.8628 14.53H15.4797Z" fill="#ECC705"/>
<path fill-rule="evenodd" clip-rule="evenodd" d="M11.0468 9.76967C10.4452 9.55113 9.39915 9.85223 8.81964 10.0951C5.5292 11.484 5.24927 15.4834 6.0817 14.9856C6.46722 14.7525 5.85088 12.079 8.93505 10.6317C9.74538 10.2505 10.455 10.3743 11.0665 10.1533L11.0468 9.76967Z" fill="#FFEE9A"/>
<ellipse cx="10.7405" cy="14.6851" rx="5.39038" ry="5.41399" fill="#F7F1D7"/>
<path fill-rule="evenodd" clip-rule="evenodd" d="M9.47785 14.1593C8.91553 14.1641 8.39741 13.7489 7.81299 13.6056C7.86947 14.1617 7.99224 14.7178 8.09047 15.2569C8.13712 15.5167 8.18378 15.7644 8.23043 16.0339C8.29182 16.3787 8.27218 16.5268 8.46371 16.7284C9.10706 17.231 12.1004 16.9591 12.9525 16.7794L13.5295 13.5959C13.0482 13.7343 12.3533 14.1496 11.9015 14.1544C11.4693 13.7173 11.0101 12.5517 10.6295 12.2434C10.2685 12.8577 9.84618 13.5643 9.47785 14.1593Z" fill="black"/>
<path fill-rule="evenodd" clip-rule="evenodd" d="M9.47041 14.1595C9.83874 13.5646 10.2611 12.8579 10.6221 12.2436C11.0027 12.552 11.4619 13.7175 11.894 14.1546C12.3459 14.1498 13.0408 13.7345 13.5221 13.5961L12.945 16.7796C12.0929 16.9593 9.09962 17.2313 8.45627 16.7286C8.26474 16.5271 8.28438 16.3789 8.22299 16.0341C8.17634 15.7646 8.12968 15.5169 8.08303 15.2571C7.9848 14.718 7.86203 14.1619 7.80555 13.6058C8.38997 13.7491 8.90809 14.1643 9.47041 14.1595ZM9.19539 13.5257C8.76321 13.4456 7.59437 12.8094 7.34636 12.8871C7.00749 12.9915 7.19657 13.4334 7.27024 13.8122C7.92341 17.224 7.44213 17.2604 9.45322 17.4789C10.3912 17.5785 13.0629 17.6951 13.4312 16.9229C13.6203 16.5295 14.1752 13.3023 14.0942 12.8968C13.554 12.7875 12.697 13.4261 12.0905 13.5476C11.926 13.2586 10.9192 11.4082 10.6294 11.4277C10.1997 11.6195 9.58337 13.0595 9.19539 13.5257Z" fill="#E97205"/>
</svg>
