<svg width="321" height="150" viewBox="0 0 321 150" fill="none" xmlns="http://www.w3.org/2000/svg">
<g filter="url(#filter0_i_226_50)">
<path fill-rule="evenodd" clip-rule="evenodd" d="M11.1816 121.573V29.5998C58.8295 17.9474 108.75 11.7538 160.18 11.7538C211.609 11.7538 261.53 17.9474 309.177 29.5998V121.573C261.53 133.225 211.609 139.418 160.18 139.418C108.75 139.418 58.8295 133.225 11.1816 121.573Z" fill="url(#paint0_linear_226_50)"/>
</g>
<path fill-rule="evenodd" clip-rule="evenodd" d="M8.60581 130.887C3.7556 129.701 0.34375 125.354 0.34375 120.361V29.6002C0.34375 24.607 3.7556 20.2603 8.60581 19.0741V19.0741C57.0914 7.2169 107.876 0.917969 160.178 0.917969C212.48 0.917969 263.265 7.2169 311.75 19.0741V19.0741C316.601 20.2603 320.012 24.607 320.012 29.6002V120.361C320.012 125.354 316.601 129.701 311.75 130.887V130.887C263.265 142.744 212.48 149.043 160.178 149.043C107.876 149.043 57.0914 142.744 8.60581 130.887V130.887ZM29.5439 25.4046C18.7267 27.7034 11.18 37.3794 11.18 48.4382V101.523C11.18 112.581 18.7266 122.257 29.5439 124.556C71.6024 133.494 115.316 138.207 160.178 138.207C205.04 138.207 248.754 133.494 290.812 124.556C301.629 122.257 309.176 112.581 309.176 101.523V48.4382C309.176 37.3794 301.629 27.7034 290.812 25.4046C248.754 16.4669 205.04 11.7542 160.178 11.7542C115.316 11.7542 71.6025 16.4669 29.5439 25.4046Z" fill="#C1BDAB"/>
<path fill-rule="evenodd" clip-rule="evenodd" d="M27.436 105.916C27.436 106.385 27.7611 106.791 28.2187 106.892C70.6131 116.255 114.782 121.207 160.18 121.207C205.577 121.207 249.746 116.255 292.14 106.892C292.598 106.791 292.923 106.385 292.923 105.916V43.2987C292.923 42.83 292.598 42.4242 292.14 42.3231C249.746 32.9596 205.577 28.0081 160.18 28.0081C114.782 28.0081 70.6131 32.9596 28.2187 42.3231C27.7611 42.4242 27.436 42.83 27.436 43.2987V105.916ZM11.9438 29.4139C11.4961 29.5228 11.1816 29.9239 11.1816 30.3847V118.83C11.1816 119.291 11.4961 119.692 11.9438 119.801C59.3618 131.333 109.024 137.461 160.18 137.461C211.335 137.461 260.997 131.333 308.415 119.801C308.863 119.692 309.177 119.291 309.177 118.83V30.3847C309.177 29.9239 308.863 29.5228 308.415 29.4139C260.997 17.8815 211.335 11.7538 160.18 11.7538C109.024 11.7538 59.3618 17.8815 11.9438 29.4139Z" fill="#DFDFDF" stroke="#46360D" stroke-width="7"/>
<path fill-rule="evenodd" clip-rule="evenodd" d="M320.012 21.2634V21.0946L311.75 19.0741C263.265 7.2169 212.48 0.917969 160.178 0.917969C107.876 0.917969 57.0914 7.2169 8.60581 19.0741L0.34375 21.0946V21.1645C3.91441 23.7974 7.98396 26.8047 11.6078 29.4957C59.1267 17.9108 108.902 11.7542 160.178 11.7542C211.608 11.7542 261.528 17.9478 309.176 29.6002V31.393L320.012 21.2634Z" fill="#FFF5CE"/>
<defs>
<filter id="filter0_i_226_50" x="11.1816" y="11.7538" width="303.996" height="133.665" filterUnits="userSpaceOnUse" color-interpolation-filters="sRGB">
<feFlood flood-opacity="0" result="BackgroundImageFix"/>
<feBlend mode="normal" in="SourceGraphic" in2="BackgroundImageFix" result="shape"/>
<feColorMatrix in="SourceAlpha" type="matrix" values="0 0 0 0 0 0 0 0 0 0 0 0 0 0 0 0 0 0 127 0" result="hardAlpha"/>
<feOffset dx="30" dy="30"/>
<feGaussianBlur stdDeviation="3"/>
<feComposite in2="hardAlpha" operator="arithmetic" k2="-1" k3="1"/>
<feColorMatrix type="matrix" values="0 0 0 0 0 0 0 0 0 0 0 0 0 0 0 0 0 0 0.25 0"/>
<feBlend mode="normal" in2="shape" result="effect1_innerShadow_226_50"/>
</filter>
<linearGradient id="paint0_linear_226_50" x1="-1.82177" y1="-707.918" x2="289.471" y2="580.054" gradientUnits="userSpaceOnUse">
<stop stop-color="#CBC9CE"/>
<stop offset="0.696333" stop-color="#18151A"/>
</linearGradient>
</defs>
</svg>
