<svg width="1156" height="696" viewBox="0 0 1156 696" fill="none" xmlns="http://www.w3.org/2000/svg">
<path d="M1108.42 28.7354H47.2808C33.168 28.7354 22.1016 40.8534 23.3794 54.9082L77.5157 650.406C78.6395 662.768 89.0043 672.234 101.417 672.234H1047.54C1059.85 672.234 1070.17 662.92 1071.42 650.674L1132.3 55.1761C1133.74 41.0298 1122.64 28.7354 1108.42 28.7354Z" fill="url(#paint0_linear_101_50)"/>
<path d="M46.2825 28.7556C45.6123 28.7829 44.9497 28.8376 44.2957 28.9185L44.3571 29.4147C43.7064 29.4952 43.0644 29.6021 42.4321 29.7344L42.3297 29.245C41.6749 29.3821 41.0302 29.5458 40.3969 29.7348L40.5399 30.2139C39.9135 30.4009 39.2984 30.6133 38.6958 30.8498L38.5131 30.3844C37.8918 30.6282 37.2833 30.8972 36.6891 31.1899L36.91 31.6385C36.3246 31.9269 35.7531 32.2389 35.1968 32.5732L34.9393 32.1447C34.3684 32.4878 33.8132 32.8539 33.2749 33.2416L33.5672 33.6473C33.0383 34.0283 32.526 34.4306 32.0317 34.853L31.7069 34.4728C31.2012 34.9048 30.7138 35.3574 30.246 35.8291L30.601 36.1812C30.1425 36.6434 29.7033 37.1244 29.2845 37.6228L28.9017 37.3011C28.4743 37.8097 28.0677 38.3361 27.6833 38.8788L28.0913 39.1678C27.7154 39.6984 27.3611 40.245 27.0296 40.8062L26.5991 40.5519C26.2617 41.1231 25.9473 41.7091 25.6573 42.3087L26.1074 42.5264C25.8248 43.1107 25.5658 43.708 25.3316 44.3172L24.8649 44.1377C24.6272 44.7561 24.4144 45.3864 24.2278 46.0273L24.7079 46.167C24.5269 46.7886 24.3711 47.4204 24.2416 48.0612L23.7515 47.9621C23.6205 48.61 23.5159 49.2668 23.4387 49.9313L23.9354 49.989C23.8608 50.6306 23.8124 51.2797 23.7912 51.935L23.2915 51.9188C23.2701 52.5775 23.2757 53.2423 23.3092 53.9122L23.8086 53.8872C23.8248 54.2113 23.8476 54.5365 23.8773 54.8629L23.9681 55.8621L23.4702 55.9074L23.6519 57.9057L24.1498 57.8604L24.3315 59.8587L23.8335 59.904L24.0152 61.9023L24.5131 61.8571L24.6948 63.8554L24.1969 63.9006L24.3785 65.899L24.8765 65.8537L25.0581 67.852L24.5602 67.8973L24.7418 69.8956L25.2398 69.8503L25.4215 71.8486L24.9235 71.8939L25.1052 73.8922L25.6031 73.847L25.7848 75.8453L25.2868 75.8905L25.4685 77.8889L25.9665 77.8436L26.1481 79.8419L25.6502 79.8872L25.8318 81.8855L26.3298 81.8402L26.5115 83.8385L26.0135 83.8838L26.1952 85.8821L26.6931 85.8369L26.8748 87.8352L26.3768 87.8804L26.5585 89.8788L27.0565 89.8335L27.2381 91.8318L26.7402 91.8771L26.9218 93.8754L27.4198 93.8301L27.6014 95.8284L27.1035 95.8737L27.2852 97.872L27.7831 97.8268L27.9648 99.8251L27.4668 99.8703L27.6485 101.869L28.1464 101.823L28.3281 103.822L27.8302 103.867L28.0118 105.865L28.5098 105.82L28.6914 107.818L28.1935 107.864L28.3752 109.862L28.8731 109.817L29.0548 111.815L28.5568 111.86L28.7385 113.859L29.2364 113.813L29.4181 115.812L28.9202 115.857L29.1018 117.855L29.5998 117.81L29.7814 119.808L29.2835 119.854L29.4652 121.852L29.9631 121.807L30.1448 123.805L29.6468 123.85L29.8285 125.848L30.3264 125.803L30.5081 127.801L30.0102 127.847L30.1918 129.845L30.6898 129.8L30.8714 131.798L30.3735 131.843L30.5551 133.842L31.0531 133.796L31.2348 135.795L30.7368 135.84L30.9185 137.838L31.4164 137.793L31.5981 139.791L31.1001 139.837L31.2818 141.835L31.7798 141.79L31.9614 143.788L31.4635 143.833L31.6451 145.832L32.1431 145.786L32.3248 147.785L31.8268 147.83L32.0085 149.828L32.5064 149.783L32.6881 151.781L32.1901 151.827L32.3718 153.825L32.8697 153.78L33.0514 155.778L32.5535 155.823L32.7351 157.821L33.2331 157.776L33.4147 159.775L32.9168 159.82L33.0985 161.818L33.5964 161.773L33.7781 163.771L33.2801 163.816L33.4618 165.815L33.9597 165.769L34.1414 167.768L33.6435 167.813L33.8251 169.811L34.3231 169.766L34.5047 171.764L34.0068 171.81L34.1885 173.808L34.6864 173.763L34.8681 175.761L34.3701 175.806L34.5518 177.805L35.0497 177.759L35.2314 179.758L34.7334 179.803L34.9151 181.801L35.4131 181.756L35.5947 183.754L35.0968 183.8L35.2784 185.798L35.7764 185.753L35.9581 187.751L35.4601 187.796L35.6418 189.794L36.1397 189.749L36.3214 191.748L35.8234 191.793L36.0051 193.791L36.5031 193.746L36.6847 195.744L36.1868 195.789L36.3684 197.788L36.8664 197.743L37.0481 199.741L36.5501 199.786L36.7318 201.784L37.2297 201.739L37.4114 203.737L36.9134 203.783L37.0951 205.781L37.5931 205.736L37.7747 207.734L37.2768 207.779L37.4584 209.778L37.9564 209.732L38.1381 211.731L37.6401 211.776L37.8218 213.774L38.3197 213.729L38.5014 215.727L38.0034 215.773L38.1851 217.771L38.683 217.726L38.8647 219.724L38.3668 219.769L38.5484 221.768L39.0464 221.722L39.228 223.721L38.7301 223.766L38.9118 225.764L39.4097 225.719L39.5914 227.717L39.0934 227.763L39.2751 229.761L39.773 229.716L39.9547 231.714L39.4568 231.759L39.6384 233.758L40.1364 233.712L40.318 235.711L39.8201 235.756L40.0018 237.754L40.4997 237.709L40.6814 239.707L40.1834 239.753L40.3651 241.751L40.863 241.706L41.0447 243.704L40.5468 243.749L40.7284 245.747L41.2264 245.702L41.408 247.701L40.9101 247.746L41.0918 249.744L41.5897 249.699L41.7714 251.697L41.2734 251.742L41.4551 253.741L41.953 253.695L42.1347 255.694L41.6368 255.739L41.8184 257.737L42.3164 257.692L42.498 259.69L42.0001 259.736L42.1818 261.734L42.6797 261.689L42.8614 263.687L42.3634 263.732L42.5451 265.731L43.043 265.685L43.2247 267.684L42.7268 267.729L42.9084 269.727L43.4064 269.682L43.588 271.68L43.0901 271.726L43.2718 273.724L43.7697 273.679L43.9514 275.677L43.4534 275.722L43.6351 277.721L44.133 277.675L44.3147 279.674L43.8167 279.719L43.9984 281.717L44.4964 281.672L44.678 283.67L44.1801 283.716L44.3617 285.714L44.8597 285.669L45.0414 287.667L44.5434 287.712L44.7251 289.711L45.223 289.665L45.4047 291.664L44.9067 291.709L45.0884 293.707L45.5864 293.662L45.768 295.66L45.2701 295.706L45.4517 297.704L45.9497 297.659L46.1314 299.657L45.6334 299.702L45.8151 301.7L46.313 301.655L46.4947 303.654L45.9967 303.699L46.1784 305.697L46.6764 305.652L46.858 307.65L46.3601 307.695L46.5417 309.694L47.0397 309.648L47.2213 311.647L46.7234 311.692L46.9051 313.69L47.403 313.645L47.5847 315.643L47.0867 315.689L47.2684 317.687L47.7663 317.642L47.948 319.64L47.4501 319.685L47.6317 321.684L48.1297 321.638L48.3113 323.637L47.8134 323.682L47.9951 325.68L48.493 325.635L48.6747 327.633L48.1767 327.679L48.3584 329.677L48.8563 329.632L49.038 331.63L48.5401 331.675L48.7217 333.674L49.2197 333.628L49.4013 335.627L48.9034 335.672L49.0851 337.67L49.583 337.625L49.7647 339.623L49.2667 339.669L49.4484 341.667L49.9463 341.622L50.128 343.62L49.6301 343.665L49.8117 345.663L50.3097 345.618L50.4913 347.617L49.9934 347.662L50.1751 349.66L50.673 349.615L50.8547 351.613L50.3567 351.658L50.5384 353.657L51.0363 353.612L51.218 355.61L50.7201 355.655L50.9017 357.653L51.3997 357.608L51.5813 359.606L51.0834 359.652L51.2651 361.65L51.763 361.605L51.9447 363.603L51.4467 363.648L51.6284 365.647L52.1263 365.601L52.308 367.6L51.8101 367.645L51.9917 369.643L52.4897 369.598L52.6713 371.596L52.1734 371.642L52.355 373.64L52.853 373.595L53.0347 375.593L52.5367 375.638L52.7184 377.637L53.2163 377.591L53.398 379.59L52.9 379.635L53.0817 381.633L53.5797 381.588L53.7613 383.586L53.2634 383.632L53.445 385.63L53.943 385.585L54.1247 387.583L53.6267 387.628L53.8084 389.627L54.3063 389.581L54.488 391.58L53.99 391.625L54.1717 393.623L54.6697 393.578L54.8513 395.576L54.3534 395.622L54.535 397.62L55.033 397.575L55.2147 399.573L54.7167 399.618L54.8984 401.616L55.3963 401.571L55.578 403.57L55.08 403.615L55.2617 405.613L55.7597 405.568L55.9413 407.566L55.4434 407.611L55.625 409.61L56.123 409.564L56.3047 411.563L55.8067 411.608L55.9884 413.606L56.4863 413.561L56.668 415.559L56.17 415.605L56.3517 417.603L56.8496 417.558L57.0313 419.556L56.5334 419.601L56.715 421.6L57.213 421.554L57.3946 423.553L56.8967 423.598L57.0784 425.596L57.5763 425.551L57.758 427.549L57.26 427.595L57.4417 429.593L57.9396 429.548L58.1213 431.546L57.6234 431.591L57.805 433.59L58.303 433.544L58.4846 435.543L57.9867 435.588L58.1684 437.586L58.6663 437.541L58.848 439.539L58.35 439.585L58.5317 441.583L59.0296 441.538L59.2113 443.536L58.7134 443.581L58.895 445.58L59.393 445.534L59.5746 447.533L59.0767 447.578L59.2584 449.576L59.7563 449.531L59.938 451.529L59.44 451.574L59.6217 453.573L60.1196 453.528L60.3013 455.526L59.8034 455.571L59.985 457.569L60.483 457.524L60.6646 459.523L60.1667 459.568L60.3484 461.566L60.8463 461.521L61.028 463.519L60.53 463.564L60.7117 465.563L61.2096 465.517L61.3913 467.516L60.8934 467.561L61.075 469.559L61.573 469.514L61.7546 471.512L61.2567 471.558L61.4383 473.556L61.9363 473.511L62.118 475.509L61.62 475.554L61.8017 477.553L62.2996 477.507L62.4813 479.506L61.9833 479.551L62.165 481.549L62.663 481.504L62.8446 483.502L62.3467 483.548L62.5283 485.546L63.0263 485.501L63.208 487.499L62.71 487.544L62.8917 489.543L63.3896 489.497L63.5713 491.496L63.0733 491.541L63.255 493.539L63.753 493.494L63.9346 495.492L63.4367 495.538L63.6183 497.536L64.1163 497.491L64.298 499.489L63.8 499.534L63.9817 501.533L64.4796 501.487L64.6613 503.486L64.1633 503.531L64.345 505.529L64.843 505.484L65.0246 507.482L64.5267 507.527L64.7083 509.526L65.2063 509.48L65.388 511.479L64.89 511.524L65.0717 513.522L65.5696 513.477L65.7513 515.475L65.2533 515.521L65.435 517.519L65.9329 517.474L66.1146 519.472L65.6167 519.517L65.7983 521.516L66.2963 521.47L66.4779 523.469L65.98 523.514L66.1617 525.512L66.6596 525.467L66.8413 527.465L66.3433 527.511L66.525 529.509L67.0229 529.464L67.2046 531.462L66.7067 531.507L66.8883 533.506L67.3863 533.46L67.5679 535.459L67.07 535.504L67.2517 537.502L67.7496 537.457L67.9313 539.455L67.4333 539.501L67.615 541.499L68.1129 541.454L68.2946 543.452L67.7967 543.497L67.9783 545.496L68.4763 545.45L68.6579 547.449L68.16 547.494L68.3417 549.492L68.8396 549.447L69.0213 551.445L68.5233 551.491L68.705 553.489L69.2029 553.444L69.3846 555.442L68.8867 555.487L69.0683 557.485L69.5663 557.44L69.7479 559.439L69.25 559.484L69.4317 561.482L69.9296 561.437L70.1113 563.435L69.6133 563.48L69.795 565.479L70.2929 565.433L70.4746 567.432L69.9767 567.477L70.1583 569.475L70.6563 569.43L70.8379 571.428L70.34 571.474L70.5216 573.472L71.0196 573.427L71.2012 575.425L70.7033 575.47L70.885 577.469L71.3829 577.423L71.5646 579.422L71.0666 579.467L71.2483 581.465L71.7462 581.42L71.9279 583.418L71.43 583.463L71.6116 585.462L72.1096 585.416L72.2912 587.415L71.7933 587.46L71.9749 589.458L72.4729 589.413L72.6546 591.411L72.1566 591.457L72.3383 593.455L72.8362 593.41L73.0179 595.408L72.5199 595.453L72.7016 597.451L73.1995 597.406L73.3812 599.404L72.8833 599.45L73.0649 601.448L73.5629 601.403L73.7445 603.401L73.2466 603.446L73.4282 605.445L73.9262 605.399L74.1079 607.398L73.6099 607.443L73.7916 609.441L74.2895 609.396L74.4712 611.394L73.9732 611.439L74.1549 613.438L74.6529 613.392L74.8345 615.391L74.3366 615.436L74.5182 617.434L75.0162 617.389L75.1978 619.387L74.6999 619.433L74.8816 621.431L75.3795 621.386L75.5612 623.384L75.0632 623.429L75.2449 625.427L75.7428 625.382L75.9245 627.38L75.4265 627.426L75.6082 629.424L76.1062 629.379L76.2878 631.377L75.7899 631.422L75.9715 633.421L76.4695 633.375L76.6511 635.374L76.1532 635.419L76.3349 637.417L76.8328 637.372L77.0145 639.37L76.5165 639.415L76.6982 641.414L77.1961 641.369L77.3778 643.367L76.8799 643.412L77.0615 645.41L77.5595 645.365L77.7411 647.363L77.2432 647.409L77.4248 649.407L77.9228 649.362L78.0137 650.361C78.043 650.684 78.0787 651.004 78.1207 651.323L77.625 651.388C77.7118 652.045 77.8249 652.694 77.963 653.332L78.4517 653.227C78.5888 653.86 78.7512 654.484 78.9377 655.096L78.4594 655.242C78.652 655.874 78.8697 656.495 79.1115 657.103L79.5761 656.919C79.815 657.52 80.0777 658.108 80.3632 658.683L79.9154 658.905C80.209 659.496 80.5261 660.073 80.8654 660.635L81.2933 660.376C81.6272 660.929 81.9831 661.466 82.3597 661.987L81.9545 662.28C82.3404 662.814 82.7476 663.331 83.1749 663.83L83.5547 663.505C83.9739 663.995 84.4128 664.467 84.8701 664.92L84.5182 665.276C84.9854 665.739 85.4715 666.183 85.9751 666.606L86.2969 666.223C86.7898 666.638 87.2997 667.032 87.8254 667.405L87.536 667.813C88.0718 668.193 88.6237 668.552 89.1904 668.888L89.4454 668.458C89.9984 668.786 90.5658 669.092 91.1463 669.374L90.9275 669.824C91.5175 670.111 92.1207 670.374 92.7359 670.613L92.9169 670.147C93.5151 670.379 94.1249 670.588 94.7451 670.771L94.6033 671.251C95.231 671.436 95.8691 671.597 96.5164 671.732L96.6181 671.242C97.2449 671.372 97.8806 671.478 98.5239 671.557L98.4629 672.053C99.1113 672.133 99.7673 672.187 100.43 672.214L100.45 671.714C100.771 671.727 101.093 671.734 101.417 671.734H102.415V672.234H104.411V671.734H106.407V672.234H108.403V671.734H110.399V672.234H112.395V671.734H114.392V672.234H116.388V671.734H118.384V672.234H120.38V671.734H122.376V672.234H124.372V671.734H126.368V672.234H128.364V671.734H130.36V672.234H132.356V671.734H134.352V672.234H136.348V671.734H138.344V672.234H140.34V671.734H142.336V672.234H144.332V671.734H146.328V672.234H148.324V671.734H150.32V672.234H152.316V671.734H154.312V672.234H156.309V671.734H158.305V672.234H160.301V671.734H162.297V672.234H164.293V671.734H166.289V672.234H168.285V671.734H170.281V672.234H172.277V671.734H174.273V672.234H176.269V671.734H178.265V672.234H180.261V671.734H182.257V672.234H184.253V671.734H186.249V672.234H188.245V671.734H190.241V672.234H192.237V671.734H194.233V672.234H196.229V671.734H198.226V672.234H200.222V671.734H202.218V672.234H204.214V671.734H206.21V672.234H208.206V671.734H210.202V672.234H212.198V671.734H214.194V672.234H216.19V671.734H218.186V672.234H220.182V671.734H222.178V672.234H224.174V671.734H226.17V672.234H228.166V671.734H230.162V672.234H232.158V671.734H234.154V672.234H236.15V671.734H238.147V672.234H240.143V671.734H242.139V672.234H244.135V671.734H246.131V672.234H248.127V671.734H250.123V672.234H252.119V671.734H254.115V672.234H256.111V671.734H258.107V672.234H260.103V671.734H262.099V672.234H264.095V671.734H266.091V672.234H268.087V671.734H270.083V672.234H272.079V671.734H274.075V672.234H276.071V671.734H278.067V672.234H280.064V671.734H282.06V672.234H284.056V671.734H286.052V672.234H288.048V671.734H290.044V672.234H292.04V671.734H294.036V672.234H296.032V671.734H298.028V672.234H300.024V671.734H302.02V672.234H304.016V671.734H306.012V672.234H308.008V671.734H310.004V672.234H312V671.734H313.996V672.234H315.992V671.734H317.988V672.234H319.984V671.734H321.981V672.234H323.977V671.734H325.973V672.234H327.969V671.734H329.965V672.234H331.961V671.734H333.957V672.234H335.953V671.734H337.949V672.234H339.945V671.734H341.941V672.234H343.937V671.734H345.933V672.234H347.929V671.734H349.925V672.234H351.921V671.734H353.917V672.234H355.913V671.734H357.909V672.234H359.905V671.734H361.902V672.234H363.898V671.734H365.894V672.234H367.89V671.734H369.886V672.234H371.882V671.734H373.878V672.234H375.874V671.734H377.87V672.234H379.866V671.734H381.862V672.234H383.858V671.734H385.854V672.234H387.85V671.734H389.846V672.234H391.842V671.734H393.839V672.234H395.835V671.734H397.831V672.234H399.827V671.734H401.823V672.234H403.819V671.734H405.815V672.234H407.811V671.734H409.807V672.234H411.803V671.734H413.799V672.234H415.795V671.734H417.791V672.234H419.787V671.734H421.783V672.234H423.779V671.734H425.776V672.234H427.772V671.734H429.768V672.234H431.764V671.734H433.76V672.234H435.756V671.734H437.752V672.234H439.748V671.734H441.744V672.234H443.74V671.734H445.736V672.234H447.732V671.734H449.728V672.234H451.724V671.734H453.72V672.234H455.716V671.734H457.713V672.234H459.709V671.734H461.705V672.234H463.701V671.734H465.697V672.234H467.693V671.734H469.689V672.234H471.685V671.734H473.681V672.234H475.677V671.734H477.673V672.234H479.669V671.734H481.665V672.234H483.661V671.734H485.657V672.234H487.654V671.734H489.65V672.234H491.646V671.734H493.642V672.234H495.638V671.734H497.634V672.234H499.63V671.734H501.626V672.234H503.622V671.734H505.618V672.234H507.614V671.734H509.61V672.234H511.606V671.734H513.602V672.234H515.598V671.734H517.594V672.234H519.591V671.734H521.587V672.234H523.583V671.734H525.579V672.234H527.575V671.734H529.571V672.234H531.567V671.734H533.563V672.234H535.559V671.734H537.555V672.234H539.551V671.734H541.547V672.234H543.543V671.734H545.539V672.234H547.535V671.734H549.531V672.234H551.528V671.734H553.524V672.234H555.52V671.734H557.516V672.234H559.512V671.734H561.508V672.234H563.504V671.734H565.5V672.234H567.496V671.734H569.492V672.234H571.488V671.734H573.484V672.234H575.48V671.734H577.476V672.234H579.472V671.734H581.469V672.234H583.465V671.734H585.461V672.234H587.457V671.734H589.453V672.234H591.449V671.734H593.445V672.234H595.441V671.734H597.437V672.234H599.433V671.734H601.429V672.234H603.425V671.734H605.421V672.234H607.417V671.734H609.413V672.234H611.409V671.734H613.405V672.234H615.402V671.734H617.398V672.234H619.394V671.734H621.39V672.234H623.386V671.734H625.382V672.234H627.378V671.734H629.374V672.234H631.37V671.734H633.366V672.234H635.362V671.734H637.358V672.234H639.354V671.734H641.35V672.234H643.346V671.734H645.342V672.234H647.338V671.734H649.334V672.234H651.33V671.734H653.326V672.234H655.322V671.734H657.318V672.234H659.314V671.734H661.31V672.234H663.306V671.734H665.302V672.234H667.298V671.734H669.294V672.234H671.29V671.734H673.286V672.234H675.283V671.734H677.279V672.234H679.275V671.734H681.271V672.234H683.267V671.734H685.263V672.234H687.259V671.734H689.255V672.234H691.251V671.734H693.247V672.234H695.243V671.734H697.239V672.234H699.235V671.734H701.231V672.234H703.227V671.734H705.223V672.234H707.219V671.734H709.215V672.234H711.211V671.734H713.207V672.234H715.203V671.734H717.199V672.234H719.195V671.734H721.191V672.234H723.187V671.734H725.183V672.234H727.179V671.734H729.175V672.234H731.171V671.734H733.167V672.234H735.164V671.734H737.16V672.234H739.156V671.734H741.152V672.234H743.148V671.734H745.144V672.234H747.14V671.734H749.136V672.234H751.132V671.734H753.128V672.234H755.124V671.734H757.12V672.234H759.116V671.734H761.112V672.234H763.108V671.734H765.104V672.234H767.1V671.734H769.096V672.234H771.092V671.734H773.088V672.234H775.084V671.734H777.08V672.234H779.076V671.734H781.072V672.234H783.068V671.734H785.064V672.234H787.06V671.734H789.056V672.234H791.052V671.734H793.048V672.234H795.044V671.734H797.041V672.234H799.037V671.734H801.033V672.234H803.029V671.734H805.025V672.234H807.021V671.734H809.017V672.234H811.013V671.734H813.009V672.234H815.005V671.734H817.001V672.234H818.997V671.734H820.993V672.234H822.989V671.734H824.985V672.234H826.981V671.734H828.977V672.234H830.973V671.734H832.969V672.234H834.965V671.734H836.961V672.234H838.957V671.734H840.953V672.234H842.949V671.734H844.945V672.234H846.941V671.734H848.937V672.234H850.933V671.734H852.929V672.234H854.925V671.734H856.922V672.234H858.918V671.734H860.914V672.234H862.91V671.734H864.906V672.234H866.902V671.734H868.898V672.234H870.894V671.734H872.89V672.234H874.886V671.734H876.882V672.234H878.878V671.734H880.874V672.234H882.87V671.734H884.866V672.234H886.862V671.734H888.858V672.234H890.854V671.734H892.85V672.234H894.846V671.734H896.842V672.234H898.838V671.734H900.834V672.234H902.83V671.734H904.826V672.234H906.822V671.734H908.818V672.234H910.814V671.734H912.81V672.234H914.806V671.734H916.802V672.234H918.799V671.734H920.795V672.234H922.791V671.734H924.787V672.234H926.783V671.734H928.779V672.234H930.775V671.734H932.771V672.234H934.767V671.734H936.763V672.234H938.759V671.734H940.755V672.234H942.751V671.734H944.747V672.234H946.743V671.734H948.739V672.234H950.735V671.734H952.731V672.234H954.727V671.734H956.723V672.234H958.719V671.734H960.715V672.234H962.711V671.734H964.707V672.234H966.703V671.734H968.699V672.234H970.695V671.734H972.691V672.234H974.687V671.734H976.683V672.234H978.68V671.734H980.676V672.234H982.672V671.734H984.668V672.234H986.664V671.734H988.66V672.234H990.656V671.734H992.652V672.234H994.648V671.734H996.644V672.234H998.64V671.734H1000.64V672.234H1002.63V671.734H1004.63V672.234H1006.62V671.734H1008.62V672.234H1010.62V671.734H1012.61V672.234H1014.61V671.734H1016.6V672.234H1018.6V671.734H1020.6V672.234H1022.59V671.734H1024.59V672.234H1026.58V671.734H1028.58V672.234H1030.58V671.734H1032.57V672.234H1034.57V671.734H1036.56V672.234H1038.56V671.734H1040.56V672.234H1042.55V671.734H1044.55V672.234H1046.54V671.734H1047.54C1047.87 671.734 1048.19 671.727 1048.5 671.714L1048.52 672.214C1049.18 672.187 1049.83 672.134 1050.48 672.056L1050.42 671.559C1051.05 671.481 1051.69 671.378 1052.31 671.249L1052.41 671.739C1053.05 671.607 1053.68 671.448 1054.31 671.265L1054.17 670.786C1054.78 670.605 1055.39 670.4 1055.98 670.171L1056.16 670.637C1056.77 670.402 1057.37 670.142 1057.96 669.859L1057.74 669.409C1058.32 669.131 1058.88 668.829 1059.43 668.506L1059.69 668.937C1060.25 668.606 1060.8 668.253 1061.33 667.878L1061.05 667.469C1061.57 667.101 1062.08 666.712 1062.57 666.303L1062.89 666.688C1063.39 666.27 1063.88 665.832 1064.34 665.375L1063.99 665.018C1064.45 664.571 1064.89 664.105 1065.31 663.622L1065.68 663.949C1066.11 663.457 1066.52 662.946 1066.91 662.419L1066.5 662.123C1066.88 661.609 1067.24 661.078 1067.57 660.533L1068 660.794C1068.34 660.24 1068.66 659.67 1068.96 659.086L1068.51 658.86C1068.8 658.292 1069.06 657.71 1069.31 657.116L1069.77 657.304C1070.01 656.703 1070.24 656.089 1070.43 655.463L1069.96 655.313C1070.15 654.707 1070.31 654.09 1070.46 653.462L1070.95 653.573C1071.09 652.941 1071.21 652.298 1071.3 651.647L1070.81 651.576C1070.85 651.261 1070.89 650.943 1070.92 650.624L1071.02 649.631L1071.52 649.682L1071.72 647.697L1071.23 647.646L1071.43 645.661L1071.93 645.712L1072.13 643.727L1071.63 643.676L1071.84 641.691L1072.33 641.742L1072.54 639.757L1072.04 639.706L1072.24 637.721L1072.74 637.772L1072.94 635.787L1072.44 635.736L1072.65 633.751L1073.15 633.802L1073.35 631.817L1072.85 631.766L1073.05 629.781L1073.55 629.832L1073.75 627.847L1073.26 627.796L1073.46 625.811L1073.96 625.862L1074.16 623.877L1073.66 623.826L1073.87 621.841L1074.36 621.892L1074.57 619.907L1074.07 619.856L1074.27 617.871L1074.77 617.922L1074.97 615.937L1074.47 615.886L1074.68 613.901L1075.17 613.952L1075.38 611.967L1074.88 611.916L1075.08 609.931L1075.58 609.982L1075.78 607.997L1075.29 607.946L1075.49 605.961L1075.99 606.012L1076.19 604.027L1075.69 603.976L1075.89 601.991L1076.39 602.042L1076.59 600.057L1076.1 600.006L1076.3 598.021L1076.8 598.072L1077 596.087L1076.5 596.036L1076.71 594.051L1077.2 594.102L1077.41 592.117L1076.91 592.066L1077.11 590.081L1077.61 590.132L1077.81 588.147L1077.31 588.096L1077.52 586.111L1078.02 586.162L1078.22 584.177L1077.72 584.126L1077.92 582.141L1078.42 582.192L1078.62 580.207L1078.13 580.156L1078.33 578.171L1078.83 578.222L1079.03 576.237L1078.53 576.186L1078.74 574.201L1079.23 574.252L1079.44 572.267L1078.94 572.216L1079.14 570.231L1079.64 570.282L1079.84 568.297L1079.34 568.246L1079.55 566.261L1080.04 566.312L1080.25 564.327L1079.75 564.276L1079.95 562.291L1080.45 562.342L1080.65 560.357L1080.16 560.306L1080.36 558.321L1080.86 558.372L1081.06 556.387L1080.56 556.336L1080.76 554.351L1081.26 554.402L1081.46 552.417L1080.97 552.366L1081.17 550.381L1081.67 550.432L1081.87 548.447L1081.37 548.396L1081.58 546.411L1082.07 546.462L1082.28 544.477L1081.78 544.426L1081.98 542.441L1082.48 542.492L1082.68 540.507L1082.19 540.456L1082.39 538.471L1082.89 538.522L1083.09 536.537L1082.59 536.486L1082.79 534.501L1083.29 534.552L1083.49 532.567L1083 532.516L1083.2 530.531L1083.7 530.582L1083.9 528.597L1083.4 528.546L1083.61 526.561L1084.1 526.612L1084.31 524.627L1083.81 524.576L1084.01 522.591L1084.51 522.642L1084.71 520.657L1084.21 520.606L1084.42 518.621L1084.91 518.672L1085.12 516.687L1084.62 516.636L1084.82 514.651L1085.32 514.702L1085.52 512.717L1085.03 512.666L1085.23 510.681L1085.73 510.732L1085.93 508.747L1085.43 508.696L1085.63 506.711L1086.13 506.762L1086.34 504.777L1085.84 504.726L1086.04 502.741L1086.54 502.792L1086.74 500.807L1086.24 500.756L1086.45 498.771L1086.94 498.822L1087.15 496.837L1086.65 496.786L1086.85 494.801L1087.35 494.852L1087.55 492.867L1087.06 492.816L1087.26 490.831L1087.76 490.882L1087.96 488.897L1087.46 488.846L1087.66 486.861L1088.16 486.912L1088.36 484.927L1087.87 484.876L1088.07 482.891L1088.57 482.942L1088.77 480.957L1088.27 480.906L1088.48 478.921L1088.97 478.972L1089.18 476.987L1088.68 476.936L1088.88 474.951L1089.38 475.002L1089.58 473.017L1089.08 472.966L1089.29 470.981L1089.78 471.032L1089.99 469.047L1089.49 468.996L1089.69 467.011L1090.19 467.062L1090.39 465.077L1089.9 465.026L1090.1 463.041L1090.6 463.092L1090.8 461.107L1090.3 461.056L1090.5 459.071L1091 459.122L1091.21 457.137L1090.71 457.086L1090.91 455.101L1091.41 455.152L1091.61 453.167L1091.11 453.116L1091.32 451.131L1091.81 451.182L1092.02 449.197L1091.52 449.146L1091.72 447.161L1092.22 447.212L1092.42 445.227L1091.93 445.176L1092.13 443.191L1092.63 443.242L1092.83 441.257L1092.33 441.206L1092.53 439.221L1093.03 439.272L1093.23 437.287L1092.74 437.236L1092.94 435.251L1093.44 435.302L1093.64 433.317L1093.14 433.266L1093.35 431.281L1093.84 431.332L1094.05 429.347L1093.55 429.296L1093.75 427.311L1094.25 427.362L1094.45 425.377L1093.95 425.326L1094.16 423.341L1094.65 423.392L1094.86 421.407L1094.36 421.356L1094.56 419.371L1095.06 419.422L1095.26 417.437L1094.77 417.386L1094.97 415.401L1095.47 415.452L1095.67 413.467L1095.17 413.416L1095.38 411.431L1095.87 411.482L1096.08 409.497L1095.58 409.446L1095.78 407.461L1096.28 407.512L1096.48 405.527L1095.98 405.476L1096.19 403.491L1096.68 403.542L1096.89 401.557L1096.39 401.506L1096.59 399.521L1097.09 399.572L1097.29 397.587L1096.8 397.536L1097 395.551L1097.5 395.602L1097.7 393.617L1097.2 393.566L1097.4 391.581L1097.9 391.632L1098.1 389.647L1097.61 389.596L1097.81 387.611L1098.31 387.662L1098.51 385.677L1098.01 385.626L1098.22 383.642L1098.71 383.692L1098.92 381.707L1098.42 381.657L1098.62 379.672L1099.12 379.722L1099.32 377.737L1098.82 377.687L1099.03 375.702L1099.53 375.752L1099.73 373.767L1099.23 373.717L1099.43 371.732L1099.93 371.782L1100.13 369.797L1099.64 369.747L1099.84 367.762L1100.34 367.812L1100.54 365.827L1100.04 365.777L1100.25 363.792L1100.74 363.842L1100.95 361.858L1100.45 361.807L1100.65 359.822L1101.15 359.873L1101.35 357.888L1100.85 357.837L1101.06 355.852L1101.55 355.903L1101.76 353.918L1101.26 353.867L1101.46 351.882L1101.96 351.933L1102.16 349.948L1101.67 349.897L1101.87 347.912L1102.37 347.963L1102.57 345.978L1102.07 345.927L1102.27 343.942L1102.77 343.993L1102.97 342.008L1102.48 341.957L1102.68 339.972L1103.18 340.023L1103.38 338.038L1102.88 337.987L1103.09 336.002L1103.58 336.053L1103.79 334.068L1103.29 334.017L1103.49 332.032L1103.99 332.083L1104.19 330.098L1103.69 330.047L1103.9 328.062L1104.4 328.113L1104.6 326.128L1104.1 326.077L1104.3 324.092L1104.8 324.143L1105 322.158L1104.51 322.107L1104.71 320.122L1105.21 320.173L1105.41 318.188L1104.91 318.137L1105.12 316.152L1105.61 316.203L1105.82 314.218L1105.32 314.167L1105.52 312.182L1106.02 312.233L1106.22 310.248L1105.72 310.197L1105.93 308.212L1106.42 308.263L1106.63 306.278L1106.13 306.227L1106.33 304.242L1106.83 304.293L1107.03 302.308L1106.54 302.257L1106.74 300.272L1107.24 300.323L1107.44 298.338L1106.94 298.287L1107.14 296.302L1107.64 296.353L1107.84 294.368L1107.35 294.317L1107.55 292.332L1108.05 292.383L1108.25 290.398L1107.75 290.347L1107.96 288.362L1108.45 288.413L1108.66 286.428L1108.16 286.377L1108.36 284.392L1108.86 284.443L1109.06 282.458L1108.56 282.407L1108.77 280.422L1109.27 280.473L1109.47 278.488L1108.97 278.437L1109.17 276.452L1109.67 276.503L1109.87 274.518L1109.38 274.467L1109.58 272.482L1110.08 272.533L1110.28 270.548L1109.78 270.497L1109.99 268.512L1110.48 268.563L1110.69 266.578L1110.19 266.527L1110.39 264.542L1110.89 264.593L1111.09 262.608L1110.59 262.557L1110.8 260.572L1111.29 260.623L1111.5 258.638L1111 258.587L1111.2 256.602L1111.7 256.653L1111.9 254.668L1111.41 254.617L1111.61 252.632L1112.11 252.683L1112.31 250.698L1111.81 250.647L1112.01 248.662L1112.51 248.713L1112.71 246.728L1112.22 246.678L1112.42 244.693L1112.92 244.743L1113.12 242.758L1112.62 242.708L1112.83 240.723L1113.32 240.773L1113.53 238.788L1113.03 238.738L1113.23 236.753L1113.73 236.803L1113.93 234.818L1113.44 234.768L1113.64 232.783L1114.14 232.833L1114.34 230.848L1113.84 230.798L1114.04 228.813L1114.54 228.863L1114.74 226.878L1114.25 226.828L1114.45 224.843L1114.95 224.894L1115.15 222.909L1114.65 222.858L1114.86 220.873L1115.35 220.924L1115.56 218.939L1115.06 218.888L1115.26 216.903L1115.76 216.954L1115.96 214.969L1115.46 214.918L1115.67 212.933L1116.16 212.984L1116.37 210.999L1115.87 210.948L1116.07 208.963L1116.57 209.014L1116.77 207.029L1116.28 206.978L1116.48 204.993L1116.98 205.044L1117.18 203.059L1116.68 203.008L1116.88 201.023L1117.38 201.074L1117.59 199.089L1117.09 199.038L1117.29 197.053L1117.79 197.104L1117.99 195.119L1117.49 195.068L1117.7 193.083L1118.19 193.134L1118.4 191.149L1117.9 191.098L1118.1 189.113L1118.6 189.164L1118.8 187.179L1118.31 187.128L1118.51 185.143L1119.01 185.194L1119.21 183.209L1118.71 183.158L1118.91 181.173L1119.41 181.224L1119.61 179.239L1119.12 179.188L1119.32 177.203L1119.82 177.254L1120.02 175.269L1119.52 175.218L1119.73 173.233L1120.22 173.284L1120.43 171.299L1119.93 171.248L1120.13 169.263L1120.63 169.314L1120.83 167.329L1120.33 167.278L1120.54 165.293L1121.03 165.344L1121.24 163.359L1120.74 163.308L1120.94 161.323L1121.44 161.374L1121.64 159.389L1121.15 159.338L1121.35 157.353L1121.85 157.404L1122.05 155.419L1121.55 155.368L1121.75 153.383L1122.25 153.434L1122.46 151.449L1121.96 151.398L1122.16 149.413L1122.66 149.464L1122.86 147.479L1122.36 147.428L1122.57 145.443L1123.06 145.494L1123.27 143.509L1122.77 143.458L1122.97 141.473L1123.47 141.524L1123.67 139.539L1123.18 139.488L1123.38 137.503L1123.88 137.554L1124.08 135.569L1123.58 135.518L1123.78 133.533L1124.28 133.584L1124.48 131.599L1123.99 131.548L1124.19 129.563L1124.69 129.614L1124.89 127.629L1124.39 127.578L1124.6 125.593L1125.09 125.644L1125.3 123.659L1124.8 123.608L1125 121.623L1125.5 121.674L1125.7 119.689L1125.2 119.638L1125.41 117.653L1125.9 117.704L1126.11 115.719L1125.61 115.668L1125.81 113.683L1126.31 113.734L1126.51 111.749L1126.02 111.698L1126.22 109.713L1126.72 109.764L1126.92 107.779L1126.42 107.728L1126.62 105.743L1127.12 105.794L1127.33 103.809L1126.83 103.758L1127.03 101.773L1127.53 101.824L1127.73 99.8388L1127.23 99.7879L1127.44 97.8029L1127.93 97.8538L1128.14 95.8687L1127.64 95.8179L1127.84 93.8329L1128.34 93.8837L1128.54 91.8987L1128.05 91.8479L1128.25 89.8628L1128.75 89.9137L1128.95 87.9287L1128.45 87.8778L1128.65 85.8928L1129.15 85.9437L1129.35 83.9586L1128.86 83.9078L1129.06 81.9228L1129.56 81.9736L1129.76 79.9886L1129.26 79.9378L1129.47 77.9527L1129.96 78.0036L1130.17 76.0186L1129.67 75.9678L1129.87 73.9827L1130.37 74.0336L1130.57 72.0486L1130.07 71.9977L1130.28 70.0127L1130.78 70.0636L1130.98 68.0785L1130.48 68.0277L1130.68 66.0427L1131.18 66.0935L1131.38 64.1085L1130.89 64.0577L1131.09 62.0726L1131.59 62.1235L1131.79 60.1385L1131.29 60.0876L1131.5 58.1026L1131.99 58.1535L1132.2 56.1684L1131.7 56.1176L1131.8 55.1253C1131.83 54.797 1131.86 54.4697 1131.88 54.1437L1132.38 54.1741C1132.42 53.5001 1132.43 52.8309 1132.42 52.1676L1131.92 52.1786C1131.9 51.5186 1131.86 50.8647 1131.79 50.2181L1132.29 50.1653C1132.22 49.4955 1132.12 48.8333 1131.99 48.1799L1131.5 48.2744C1131.38 47.6281 1131.23 46.9907 1131.05 46.3633L1131.53 46.2277C1131.35 45.5809 1131.14 44.9446 1130.91 44.3201L1130.44 44.4958C1130.21 43.8807 1129.95 43.2772 1129.67 42.6869L1130.12 42.4726C1129.84 41.8668 1129.52 41.2744 1129.19 40.697L1128.76 40.9484C1128.43 40.3811 1128.07 39.8284 1127.7 39.2918L1128.11 39.0055C1127.72 38.4566 1127.32 37.9241 1126.89 37.4096L1126.51 37.729C1126.09 37.2247 1125.65 36.738 1125.19 36.2702L1125.55 35.92C1125.08 35.4427 1124.59 34.9846 1124.08 34.5472L1123.76 34.9258C1123.26 34.4982 1122.75 34.0908 1122.22 33.705L1122.51 33.3006C1121.97 32.9079 1121.41 32.5371 1120.84 32.1896L1120.58 32.6172C1120.02 32.2785 1119.45 31.9624 1118.86 31.6702L1119.08 31.2224C1118.48 30.9258 1117.87 30.6533 1117.25 30.4062L1117.06 30.8712C1116.46 30.6316 1115.84 30.4164 1115.21 30.2269L1115.35 29.748C1114.71 29.5565 1114.06 29.3906 1113.41 29.2518L1113.3 29.741C1112.67 29.607 1112.02 29.4986 1111.36 29.417L1111.43 28.9209C1110.77 28.8389 1110.1 28.7836 1109.43 28.7559L1109.41 29.2555C1109.08 29.2421 1108.75 29.2354 1108.42 29.2354H1107.42V28.7354H1105.42V29.2354H1103.42V28.7354H1101.41V29.2354H1099.41V28.7354H1097.41V29.2354H1095.41V28.7354H1093.41V29.2354H1091.4V28.7354H1089.4V29.2354H1087.4V28.7354H1085.4V29.2354H1083.39V28.7354H1081.39V29.2354H1079.39V28.7354H1077.39V29.2354H1075.39V28.7354H1073.38V29.2354H1071.38V28.7354H1069.38V29.2354H1067.38V28.7354H1065.38V29.2354H1063.37V28.7354H1061.37V29.2354H1059.37V28.7354H1057.37V29.2354H1055.36V28.7354H1053.36V29.2354H1051.36V28.7354H1049.36V29.2354H1047.36V28.7354H1045.35V29.2354H1043.35V28.7354H1041.35V29.2354H1039.35V28.7354H1037.35V29.2354H1035.34V28.7354H1033.34V29.2354H1031.34V28.7354H1029.34V29.2354H1027.33V28.7354H1025.33V29.2354H1023.33V28.7354H1021.33V29.2354H1019.33V28.7354H1017.32V29.2354H1015.32V28.7354H1013.32V29.2354H1011.32V28.7354H1009.31V29.2354H1007.31V28.7354H1005.31V29.2354H1003.31V28.7354H1001.31V29.2354H999.304V28.7354H997.302V29.2354H995.3V28.7354H993.298V29.2354H991.296V28.7354H989.293V29.2354H987.291V28.7354H985.289V29.2354H983.287V28.7354H981.285V29.2354H979.283V28.7354H977.28V29.2354H975.278V28.7354H973.276V29.2354H971.274V28.7354H969.272V29.2354H967.27V28.7354H965.268V29.2354H963.265V28.7354H961.263V29.2354H959.261V28.7354H957.259V29.2354H955.257V28.7354H953.255V29.2354H951.253V28.7354H949.25V29.2354H947.248V28.7354H945.246V29.2354H943.244V28.7354H941.242V29.2354H939.24V28.7354H937.237V29.2354H935.235V28.7354H933.233V29.2354H931.231V28.7354H929.229V29.2354H927.227V28.7354H925.225V29.2354H923.222V28.7354H921.22V29.2354H919.218V28.7354H917.216V29.2354H915.214V28.7354H913.212V29.2354H911.209V28.7354H909.207V29.2354H907.205V28.7354H905.203V29.2354H903.201V28.7354H901.199V29.2354H899.197V28.7354H897.194V29.2354H895.192V28.7354H893.19V29.2354H891.188V28.7354H889.186V29.2354H887.184V28.7354H885.181V29.2354H883.179V28.7354H881.177V29.2354H879.175V28.7354H877.173V29.2354H875.171V28.7354H873.169V29.2354H871.166V28.7354H869.164V29.2354H867.162V28.7354H865.16V29.2354H863.158V28.7354H861.156V29.2354H859.154V28.7354H857.151V29.2354H855.149V28.7354H853.147V29.2354H851.145V28.7354H849.143V29.2354H847.141V28.7354H845.138V29.2354H843.136V28.7354H841.134V29.2354H839.132V28.7354H837.13V29.2354H835.128V28.7354H833.125V29.2354H831.123V28.7354H829.121V29.2354H827.119V28.7354H825.117V29.2354H823.115V28.7354H821.112V29.2354H819.11V28.7354H817.108V29.2354H815.106V28.7354H813.104V29.2354H811.102V28.7354H809.099V29.2354H807.097V28.7354H805.095V29.2354H803.093V28.7354H801.091V29.2354H799.089V28.7354H797.086V29.2354H795.084V28.7354H793.082V29.2354H791.08V28.7354H789.078V29.2354H787.076V28.7354H785.073V29.2354H783.071V28.7354H781.069V29.2354H779.067V28.7354H777.065V29.2354H775.063V28.7354H773.06V29.2354H771.058V28.7354H769.056V29.2354H767.054V28.7354H765.052V29.2354H763.05V28.7354H761.047V29.2354H759.045V28.7354H757.043V29.2354H755.041V28.7354H753.039V29.2354H751.037V28.7354H749.034V29.2354H747.032V28.7354H745.03V29.2354H743.028V28.7354H741.026V29.2354H739.024V28.7354H737.021V29.2354H735.019V28.7354H733.017V29.2354H731.015V28.7354H729.013V29.2354H727.011V28.7354H725.008V29.2354H723.006V28.7354H721.004V29.2354H719.002V28.7354H717V29.2354H714.998V28.7354H712.995V29.2354H710.993V28.7354H708.991V29.2354H706.989V28.7354H704.987V29.2354H702.985V28.7354H700.982V29.2354H698.98V28.7354H696.978V29.2354H694.976V28.7354H692.974V29.2354H690.972V28.7354H688.969V29.2354H686.967V28.7354H684.965V29.2354H682.963V28.7354H680.961V29.2354H678.959V28.7354H676.956V29.2354H674.954V28.7354H672.952V29.2354H670.95V28.7354H668.948V29.2354H666.946V28.7354H664.943V29.2354H662.941V28.7354H660.939V29.2354H658.937V28.7354H656.935V29.2354H654.933V28.7354H652.93V29.2354H650.928V28.7354H648.926V29.2354H646.924V28.7354H644.922V29.2354H642.92V28.7354H640.917V29.2354H638.915V28.7354H636.913V29.2354H634.911V28.7354H632.909V29.2354H630.907V28.7354H628.904V29.2354H626.902V28.7354H624.9V29.2354H622.898V28.7354H620.896V29.2354H618.894V28.7354H616.891V29.2354H614.889V28.7354H612.887V29.2354H610.885V28.7354H608.883V29.2354H606.881V28.7354H604.878V29.2354H602.876V28.7354H600.874V29.2354H598.872V28.7354H596.87V29.2354H594.868V28.7354H592.865V29.2354H590.863V28.7354H588.861V29.2354H586.859V28.7354H584.857V29.2354H582.855V28.7354H580.853V29.2354H578.85V28.7354H576.848V29.2354H574.846V28.7354H572.844V29.2354H570.842V28.7354H568.84V29.2354H566.838V28.7354H564.836V29.2354H562.833V28.7354H560.831V29.2354H558.829V28.7354H556.827V29.2354H554.825V28.7354H552.823V29.2354H550.821V28.7354H548.818V29.2354H546.816V28.7354H544.814V29.2354H542.812V28.7354H540.81V29.2354H538.808V28.7354H536.806V29.2354H534.804V28.7354H532.801V29.2354H530.799V28.7354H528.797V29.2354H526.795V28.7354H524.793V29.2354H522.791V28.7354H520.789V29.2354H518.786V28.7354H516.784V29.2354H514.782V28.7354H512.78V29.2354H510.778V28.7354H508.776V29.2354H506.774V28.7354H504.771V29.2354H502.769V28.7354H500.767V29.2354H498.765V28.7354H496.763V29.2354H494.761V28.7354H492.759V29.2354H490.756V28.7354H488.754V29.2354H486.752V28.7354H484.75V29.2354H482.748V28.7354H480.746V29.2354H478.744V28.7354H476.742V29.2354H474.739V28.7354H472.737V29.2354H470.735V28.7354H468.733V29.2354H466.731V28.7354H464.729V29.2354H462.727V28.7354H460.724V29.2354H458.722V28.7354H456.72V29.2354H454.718V28.7354H452.716V29.2354H450.714V28.7354H448.712V29.2354H446.709V28.7354H444.707V29.2354H442.705V28.7354H440.703V29.2354H438.701V28.7354H436.699V29.2354H434.697V28.7354H432.695V29.2354H430.692V28.7354H428.69V29.2354H426.688V28.7354H424.686V29.2354H422.684V28.7354H420.682V29.2354H418.68V28.7354H416.677V29.2354H414.675V28.7354H412.673V29.2354H410.671V28.7354H408.669V29.2354H406.667V28.7354H404.665V29.2354H402.663V28.7354H400.66V29.2354H398.658V28.7354H396.656V29.2354H394.654V28.7354H392.652V29.2354H390.65V28.7354H388.648V29.2354H386.645V28.7354H384.643V29.2354H382.641V28.7354H380.639V29.2354H378.637V28.7354H376.635V29.2354H374.633V28.7354H372.63V29.2354H370.628V28.7354H368.626V29.2354H366.624V28.7354H364.622V29.2354H362.62V28.7354H360.618V29.2354H358.616V28.7354H356.613V29.2354H354.611V28.7354H352.609V29.2354H350.607V28.7354H348.605V29.2354H346.603V28.7354H344.601V29.2354H342.598V28.7354H340.596V29.2354H338.594V28.7354H336.592V29.2354H334.59V28.7354H332.588V29.2354H330.586V28.7354H328.583V29.2354H326.581V28.7354H324.579V29.2354H322.577V28.7354H320.575V29.2354H318.573V28.7354H316.571V29.2354H314.569V28.7354H312.566V29.2354H310.564V28.7354H308.562V29.2354H306.56V28.7354H304.558V29.2354H302.556V28.7354H300.554V29.2354H298.551V28.7354H296.549V29.2354H294.547V28.7354H292.545V29.2354H290.543V28.7354H288.541V29.2354H286.539V28.7354H284.536V29.2354H282.534V28.7354H280.532V29.2354H278.53V28.7354H276.528V29.2354H274.526V28.7354H272.524V29.2354H270.521V28.7354H268.519V29.2354H266.517V28.7354H264.515V29.2354H262.513V28.7354H260.511V29.2354H258.509V28.7354H256.507V29.2354H254.504V28.7354H252.502V29.2354H250.5V28.7354H248.498V29.2354H246.496V28.7354H244.494V29.2354H242.492V28.7354H240.489V29.2354H238.487V28.7354H236.485V29.2354H234.483V28.7354H232.481V29.2354H230.479V28.7354H228.477V29.2354H226.475V28.7354H224.472V29.2354H222.47V28.7354H220.468V29.2354H218.466V28.7354H216.464V29.2354H214.462V28.7354H212.46V29.2354H210.457V28.7354H208.455V29.2354H206.453V28.7354H204.451V29.2354H202.449V28.7354H200.447V29.2354H198.445V28.7354H196.442V29.2354H194.44V28.7354H192.438V29.2354H190.436V28.7354H188.434V29.2354H186.432V28.7354H184.43V29.2354H182.428V28.7354H180.425V29.2354H178.423V28.7354H176.421V29.2354H174.419V28.7354H172.417V29.2354H170.415V28.7354H168.413V29.2354H166.41V28.7354H164.408V29.2354H162.406V28.7354H160.404V29.2354H158.402V28.7354H156.4V29.2354H154.398V28.7354H152.395V29.2354H150.393V28.7354H148.391V29.2354H146.389V28.7354H144.387V29.2354H142.385V28.7354H140.383V29.2354H138.381V28.7354H136.378V29.2354H134.376V28.7354H132.374V29.2354H130.372V28.7354H128.37V29.2354H126.368V28.7354H124.366V29.2354H122.363V28.7354H120.361V29.2354H118.359V28.7354H116.357V29.2354H114.355V28.7354H112.353V29.2354H110.351V28.7354H108.348V29.2354H106.346V28.7354H104.344V29.2354H102.342V28.7354H100.34V29.2354H98.3378V28.7354H96.3356V29.2354H94.3335V28.7354H92.3314V29.2354H90.3293V28.7354H88.3271V29.2354H86.325V28.7354H84.3228V29.2354H82.3206V28.7354H80.3184V29.2354H78.3162V28.7354H76.314V29.2354H74.3118V28.7354H72.3096V29.2354H70.3074V28.7354H68.3052V29.2354H66.303V28.7354H64.3008V29.2354H62.2986V28.7354H60.2964V29.2354H58.2942V28.7354H56.2921V29.2354H54.2898V28.7354H52.2876V29.2354H50.2854V28.7354H48.2832V29.2354H47.2808C46.953 29.2354 46.627 29.242 46.3028 29.2552L46.2825 28.7556Z" stroke="#F2E9DA" stroke-opacity="0.89" stroke-dasharray="2 2"/>
<g filter="url(#filter0_i_101_50)">
<path fill-rule="evenodd" clip-rule="evenodd" d="M0.177796 54.9977C-2.22968 28.223 20.1193 5.2334 48.5556 5.2334H1107.44C1136.07 5.2334 1158.48 28.5139 1155.78 55.4421L1095.74 654.066C1093.38 677.623 1072.45 695.618 1047.41 695.618H102.382C77.1604 695.618 56.139 677.369 54.0038 653.622L0.177796 54.9977ZM48.5556 27.081C33.6605 27.081 21.9538 39.1231 23.2149 53.148L77.0408 651.772C78.1593 664.211 89.1705 673.77 102.382 673.77H1047.41C1060.52 673.77 1071.49 664.344 1072.73 652.005L1132.76 53.3808C1134.18 39.2755 1122.44 27.081 1107.44 27.081H48.5556Z" fill="url(#paint1_radial_101_50)"/>
</g>
<g filter="url(#filter1_f_101_50)">
<path d="M262 3.896H654.831C656.581 3.896 658 5.31467 658 7.0647C658 8.81472 656.581 10.2334 654.831 10.2334H262L83.875 6.99448L262 3.896Z" fill="white"/>
</g>
<defs>
<filter id="filter0_i_101_50" x="0" y="5.2334" width="1156" height="690.384" filterUnits="userSpaceOnUse" color-interpolation-filters="sRGB">
<feFlood flood-opacity="0" result="BackgroundImageFix"/>
<feBlend mode="normal" in="SourceGraphic" in2="BackgroundImageFix" result="shape"/>
<feColorMatrix in="SourceAlpha" type="matrix" values="0 0 0 0 0 0 0 0 0 0 0 0 0 0 0 0 0 0 127 0" result="hardAlpha"/>
<feOffset dy="11"/>
<feComposite in2="hardAlpha" operator="arithmetic" k2="-1" k3="1"/>
<feColorMatrix type="matrix" values="0 0 0 0 1 0 0 0 0 1 0 0 0 0 1 0 0 0 0.36 0"/>
<feBlend mode="normal" in2="shape" result="effect1_innerShadow_101_50"/>
</filter>
<filter id="filter1_f_101_50" x="80.875" y="0.895996" width="580.125" height="12.3374" filterUnits="userSpaceOnUse" color-interpolation-filters="sRGB">
<feFlood flood-opacity="0" result="BackgroundImageFix"/>
<feBlend mode="normal" in="SourceGraphic" in2="BackgroundImageFix" result="shape"/>
<feGaussianBlur stdDeviation="1.5" result="effect1_foregroundBlur_101_50"/>
</filter>
<linearGradient id="paint0_linear_101_50" x1="582.771" y1="25.3839" x2="582.771" y2="677.253" gradientUnits="userSpaceOnUse">
<stop stop-color="#0D0C0E"/>
<stop offset="0.624131" stop-color="#2A272F"/>
<stop offset="0.760661" stop-color="#4A494D"/>
<stop offset="0.923271" stop-color="#69676D"/>
<stop offset="0.973895" stop-color="#3E3B42"/>
<stop offset="1" stop-color="#595959"/>
</linearGradient>
<radialGradient id="paint1_radial_101_50" cx="0" cy="0" r="1" gradientUnits="userSpaceOnUse" gradientTransform="translate(549.297 -53.7551) rotate(87.8065) scale(749.922 1255.5)">
<stop stop-color="#3A313A"/>
<stop offset="1" stop-color="#241D29"/>
</radialGradient>
</defs>
</svg>
